<?xml version="1.0" encoding="UTF-8"?>
<svg id="_图层_1" xmlns="http://www.w3.org/2000/svg" version="1.1" viewBox="0 0 111 58">
  <!-- Generator: Adobe Illustrator 30.3.0, SVG Export Plug-In . SVG Version: 2.1.3 Build 182)  -->
  <path d="M55.49,3.53c15.15,0,30.28.86,45.05,2.54l.8.1.04.78c.42,7.31.63,14.71.63,22.04s-.21,14.75-.63,22.06l-.04.78-.8.1c-14.75,1.68-29.92,2.54-45.05,2.54h0c-15.13-.02-30.28-.88-45.03-2.56l-.8-.1-.04-.78c-.42-7.31-.63-14.71-.63-22.04s.19-14.73.61-22.04l.04-.78.8-.1c14.77-1.68,29.92-2.54,45.05-2.54ZM99.53,7.81c-28.87-3.23-59.19-3.23-88.08.02-.38,7-.59,14.12-.59,21.16s.19,14.14.59,21.16h0c14.42,1.59,29.23,2.43,44.04,2.43s29.59-.82,44.04-2.45c.38-7,.59-14.12.59-21.16s-.19-14.14-.59-21.16ZM59.34,28.23c.86,0,1.74.13,2.64.42.96.31,1.7.88,2.2,1.7.57.98.69,2.01.25,3.18-.34.96-.98,1.76-1.51,2.43-1.22,1.47-6.58,6.87-6.6,6.89,1.05,0,5.85-.04,6.56-.04h.02c.86,0,1.68-.25,2.51-.69v2.26h-12.84l.04-.04c.1-.08,8.51-8.99,9.07-10.14.5-1.01.4-2.62-.57-3.5-.63-.55-1.36-.84-2.07-.88-2.95-.13-4.59,2.16-5.09,2.79l-.19-2.09c.67-.69,2.64-2.31,5.59-2.31v.02ZM75.27,16.33c1.68,0,3.08.38,4.21,1.43,1.78,1.68,1.61,5.51.36,6.98-.27.31-.65.82-.96,1.09-.8.75-1.76,1.28-2.85,1.53l6.29,9.53c1.28,1.47,1.91,2.09,3.6,2.47v.04l.34.17s-2.64.86-4.44.15c-.86-.33-1.17-.82-1.53-1.32l-6.52-10.79h-3.48l.19,7.54c.02,2.1.48,3.37.67,3.65.25.36.65.63,1.11.73l.11.04h-6.41l.04-.06c.92-.29,1.61-.99,1.61-1.97,0-.44,1.22-13.33.21-19.68-.1-.67-1.09-1.32-1.68-1.53l9.11.04.02-.04ZM24.54,15.87c.11,0,.21.08.27.17l9.09,19.09,9.09-19.09c.06-.11.15-.17.27-.17h1.34v.92c.44,6.03,1.19,11.88,2.03,17.77l.54,3.5c.19.88.69,1.28,1.45,1.57l.06.06.08.21h-5.97l.15-.15.1-.06h-.04c1.53-.38,1.24-2.68,1.24-2.68l-1.28-16.99-9.09,19.86-9.09-19.86-1.28,16.99s-.29,2.3,1.24,2.66c.04,0,.1.06.1.06l.15.15h-5.97l.08-.21s.04-.06.06-.06c.77-.31,1.28-.73,1.45-1.57l.54-3.5c.86-5.89,1.59-11.77,2.03-17.77v-.9h1.38ZM70.35,18.11l-.04,7.73h.02l4.09-.06c1.24-.06,2.43-.65,3.12-1.65.42-.63.67-1.38.67-2.18,0-2.68-1.78-3.9-3.98-3.9l-3.9.06h.02Z"/>
</svg>