<?xml version="1.0" encoding="UTF-8"?>
<svg id="_图层_1" data-name="图层_1" xmlns="http://www.w3.org/2000/svg" version="1.1" viewBox="0 0 595.28 841.89">
  <!-- Generator: Adobe Illustrator 30.3.0, SVG Export Plug-In . SVG Version: 2.1.3 Build 182)  -->
  <defs>
    <style>
      .st0 {
        fill: none;
      }
    </style>
  </defs>
  <path id="Icon" class="st0" d="M300.89,532.73c-14.4,0-28.01-2.93-40.84-8.8-12.82-5.87-24.02-13.88-33.59-24.03-9.57-10.15-17.12-22.03-22.66-35.63-5.53-13.6-8.3-28.09-8.3-43.45s2.77-29.81,8.3-43.31c5.53-13.51,13.08-25.34,22.66-35.49,9.57-10.15,20.77-18.16,33.59-24.03,12.82-5.87,26.43-8.8,40.84-8.8,9.48,0,18.71,1.3,27.66,3.91,8.96,2.61,17.3,6.33,25.03,11.18-15.98,9.87-28.76,23.24-38.33,40.1-9.57,16.86-14.36,35.72-14.36,56.59s4.79,39.73,14.36,56.59c9.57,16.86,22.35,30.23,38.33,40.1-7.73,4.84-16.07,8.57-25.03,11.18s-18.18,3.91-27.66,3.91h0"/>
</svg>