<?xml version="1.0" encoding="UTF-8"?>
<svg id="_图层_1" data-name="图层_1" xmlns="http://www.w3.org/2000/svg" version="1.1" viewBox="0 0 342.23 117.11">
  <!-- Generator: Adobe Illustrator 30.3.0, SVG Export Plug-In . SVG Version: 2.1.3 Build 182)  -->
  <defs>
    <style>
      .st0 {
        fill: #231815;
      }
    </style>
  </defs>
  <path class="st0" d="M49.65,59.93c0-.26.12-.46.37-.61.25-.15.58-.28.98-.39.41-.15.63-.26.68-.32.13-.09.44-.37.94-.84.5-.47.89-.71,1.19-.71.13,0,.24.03.34.08.1.05.15.11.15.18,0,.32-.25.72-.76,1.18-.51.46-1.09.87-1.74,1.23-.66.35-1.15.53-1.47.53h-.42c-.06-.04-.12-.1-.18-.16-.05-.06-.08-.12-.08-.16ZM50.81,68.98l.06.13c.28,0,.8-.56,1.57-1.7.76-1.13,1.75-2.66,2.96-4.6.77-1.18,1.29-1.95,1.55-2.29.09-.17.21-.45.39-.82.17-.38.39-.65.65-.82h.1s.06.05.06.16c0,.37-.67,1.73-2,4.09-1.34,2.36-2.38,4.15-3.13,5.38-.34.56-.78,1.09-1.31,1.58-.53.5-1.03.74-1.5.74-.32,0-.48-.28-.48-.84,0-.24.09-.73.27-1.47.18-.74.4-1.44.65-2.08s.47-1.02.66-1.13l.06.26v.1c0,.39-.1.96-.29,1.71-.17.82-.26,1.36-.26,1.62ZM49.81,50.6c0-.19.24-.29.71-.29h.42c.26,0,.55.02.87.05.32.03.65.04.97.02.09.11.31.18.66.23.35.04.56.06.63.06.78.06,1.38.16,1.81.29.43.13.65.4.65.81,0,.45-.23.96-.68,1.52-.45.56-.88.84-1.29.84,0-.3.15-.65.45-1.03.02-.02.09-.12.19-.31.11-.18.16-.36.16-.53,0-.24-.3-.43-.89-.58-.59-.15-1.46-.33-2.6-.55-.52-.06-.99-.15-1.42-.26-.43-.11-.65-.19-.65-.26ZM51.36,65.07s-.03-.03-.03-.08.01-.08.03-.08c.04,0,.06.03.06.08s-.02.08-.06.08ZM63.41,47.43c0-.17.18-.26.55-.26h.26c.17,0,.63.1,1.39.31.75.21,1.13.37,1.13.5,0,.75-.37,1.63-1.1,2.63-.73,1-1.76,2.25-3.07,3.73-.84.97-1.25,1.44-1.23,1.42-.09.13-.16.26-.21.39-.05.13-.18.27-.37.42v.06h.19c.54-.15.9-.28,1.1-.39.52-.19,1.51-.61,2.97-1.26l1.71-.81c.11-.04.26-.12.45-.23.19-.11.39-.16.58-.16h.26c.06,0,.1.06.1.19,0,.37-.93,1.04-2.79,2.02-1.86.98-3.3,1.66-4.31,2.05-.32.11-.84.16-1.55.16h-.48c-.13-.11-.19-.27-.19-.48,0-.26.51-.95,1.52-2.07.65-.73.96-1.13.94-1.2.8-.86,1.7-1.94,2.7-3.25,1-1.3,1.5-2.19,1.5-2.66,0-.17-.09-.3-.26-.37-.17-.08-.42-.15-.74-.21-.34-.04-.6-.1-.78-.18-.17-.08-.26-.2-.26-.37ZM61.57,62.55c0-.06-.01-.44-.03-1.11s.15-1.02.52-1.02c.26,0,.41.72.45,2.16.04.67.1,1,.16,1h.06l.74-.48.06-.06c.09-.04.18-.1.29-.18.11-.08.19-.12.26-.15,1.46-.69,2.66-1.2,3.6-1.53.94-.33,1.9-.5,2.89-.5.54,0,.94.03,1.21.1.27.06.4.3.4.71,0,.65-.23,1.35-.68,2.12-.45.76-1.09,1.72-1.91,2.86-.09.11-.18.22-.29.32-.11.11-.21.24-.31.39-.1.15-.15.3-.15.45h1.78c.3,0,.55.08.74.24.19.16.26.37.19.63-.06.15-.2.26-.4.32-.21.06-.4.1-.6.1-.04,0-.1-.01-.16-.03-.06-.02-.15-.03-.26-.03l-.06.06h-.1l-.16-.06h-.1l-.39.06h-1.07c-.11.02-.32.11-.63.26-.31.15-.54.23-.69.23s-.31-.01-.47-.03-.33-.03-.5-.03h-.42l-.13.06h-1l-.06-.06c-.06-.06-.11-.12-.13-.16-.02-.04-.03-.11-.03-.19,0-.3.17-.51.52-.63.34-.12.77-.2,1.28-.24.51-.04.86-.08,1.05-.1.28-.06.72-.53,1.32-1.39.6-.86,1.17-1.77,1.71-2.71.54-.95.81-1.53.81-1.74v-.26c-.17-.11-.42-.16-.74-.16-.77,0-1.29.05-1.55.16-.82.34-1.96.87-3.42,1.57-1.46.7-2.2,1.15-2.2,1.34,0,.54.15,1.32.45,2.36.3.95.45,1.67.45,2.16,0,.43-.06.79-.18,1.08-.12.29-.36.45-.73.47-.15.02-.34-.55-.57-1.71-.23-1.16-.43-2.47-.6-3.91-.17-1.44-.26-2.35-.26-2.71ZM68.29,52.57c0-.32.11-.48.32-.48.09,0,.54.21,1.36.63s1.58.85,2.29,1.29c.71.44,1.08.75,1.1.92.04.3-.05.6-.27.89-.23.29-.5.44-.82.44-.26,0-.39-.16-.39-.48-.04-.24-.01-.35.1-.35-.19-.19-.68-.54-1.45-1.03-1.49-.88-2.23-1.49-2.23-1.81Z"/>
  <path class="st0" d="M93.19,44.4c0-.19.17-.38.52-.57.34-.18.63-.27.87-.27.17,0,.31.05.42.16.11.11.16.25.16.42,0,.09-.03.16-.1.23-.06.06-.1.12-.1.16,0,.15.16.3.47.45.31.15.69.3,1.13.45.44.15.75.26.92.32.54.28,1.08.62,1.61,1.02s1.05.8,1.55,1.21l.71.58c.34.24.67.52.97.84.82.77,1.5,1.28,2.03,1.52.84.34,1.75.52,2.75.52l.78-.03c.39.13.58.36.58.68,0,.13-.1.24-.29.34s-.34.17-.45.21h-.9c-.95,0-1.9-.12-2.86-.37-.96-.25-1.56-.69-1.79-1.34l-.16.06c-.39-.5-.67-.74-.84-.74-.15-.11-.53-.52-1.13-1.23-.52-.56-.92-.96-1.19-1.2-.71-.58-1.76-1.19-3.13-1.84l-.87-.45c-.13.32-.42.81-.89,1.45-.46.65-.74,1.03-.82,1.16-.67.9-1.16,1.6-1.49,2.1-.32.5-.48.86-.48,1.1.71,0,1.46-.13,2.25-.39.79-.26,1.7-.62,2.73-1.1.24-.11.45-.2.65-.27.19-.08.37-.15.52-.21.11-.04.29-.15.53-.31.25-.16.45-.24.6-.24.11,0,.29.06.55.19,0,.32-.25.64-.76.95-.51.31-1.09.6-1.76.86-.67.26-1.1.43-1.29.52-.39.17-1.54.46-3.46.87-1.29.28-1.95.44-1.97.48-.32.58-.78,1.18-1.36,1.81l-.84,1c-.47.6-1.26,1.3-2.37,2.08-1.11.79-2,1.18-2.67,1.18-.32,0-.66-.12-1.02-.37-.36-.25-.53-.53-.53-.86,0-.09.04-.17.11-.24.08-.08.17-.11.27-.11h.1c.04.11.16.25.34.42.18.17.34.26.47.26.5,0,1.01-.16,1.53-.47.53-.31,1.02-.67,1.47-1.08.65-.58,1.68-1.71,3.1-3.39,1.42-1.68,2.69-3.31,3.81-4.89,1.12-1.58,1.68-2.66,1.68-3.25v-.06c-.43,0-.65-.11-.65-.32ZM86.73,71.59c0-.15.02-.26.05-.34.03-.08.1-.18.21-.31.19-.37.45-1.34.78-2.91.28-1.38.48-2.07.61-2.07.19,0,.33.3.42.89s.13,1.07.13,1.44v.19c0,.15-.02.35-.07.6-.04.25-.08.46-.1.63-.04,0-.1.04-.16.13-.06.09-.1.15-.1.19l.13.23c0,.34-.13.75-.39,1.21-.26.46-.54.69-.84.69-.19,0-.36-.05-.48-.16-.13-.11-.19-.25-.19-.42ZM90.41,54.76l.32.32c.15,0,.57-.18,1.26-.55.6-.32,1.1-.57,1.49-.74.39-.17.72-.26,1-.26.26,0,.44.06.53.18.1.12.18.31.26.56.08.26.13.44.18.55v1.07c0,.24.03.55.08.94.05.39.09.6.11.65l.06.06c.41-.24.71-.36.9-.36.07,0,.11.03.15.08.03.05.05.12.05.21,0,.13-.06.26-.18.4-.12.14-.23.26-.34.37-.39.32-.6.6-.65.84.02.43.01,1.07-.03,1.91-.04.58-.06,1.03-.06,1.36s.01.57.03.74c0,.06-.02.12-.06.16-.04.04-.06.1-.06.16,0,.04.03.11.1.19.06.09.1.15.1.19l-.06.19v.06c0,.13.01.25.03.37.02.12.03.24.03.37,0,.17-.08.32-.24.45-.16.13-.33.19-.5.19-.28,0-.61-.23-1-.68s-.74-.96-1.05-1.53c-.31-.57-.47-.97-.47-1.21h-.06c-.13,0-.28.04-.44.13-.16.09-.3.13-.4.13-.13,0-.22-.04-.26-.13-.04-.09-.06-.18-.06-.29,0-.24.15-.49.44-.76.29-.27.73-.61,1.31-1.02.52-.37.9-.66,1.15-.89.25-.23.37-.42.37-.6v-1.13l-.06-.1c-.17.13-.6.34-1.29.65-.82.37-1.44.67-1.87.9-.43.24-.65.43-.65.58v.06l.13.55v.19c-.02.09-.05.19-.1.32s-.08.24-.1.32l.06.32v.48c0,.39-.04,1.03-.13,1.94-.04.3-.1.74-.16,1.32-.11.13-.27.23-.48.31-.22.08-.41.11-.58.11-.21,0-.42-.21-.61-.65-.19-.43-.29-.79-.29-1.07,0-.04.04-.13.11-.26.08-.13.11-.23.11-.29.09,0,.16.01.21.03.05.02.12.03.21.03.21,0,.38-.44.5-1.31s.18-1.56.18-2.05v-.39c-.13-.06-.24-.15-.34-.26s-.15-.23-.15-.36c0-.11.12-.34.37-.69.25-.36.37-.72.37-1.08,0-.06-.02-.13-.06-.19-.04-.06-.06-.13-.06-.19,0-.69.23-1.35.68-1.97ZM90.48,54.76s-.03-.03-.03-.08.01-.08.03-.08c.04,0,.06.03.06.08s-.02.08-.06.08ZM90.9,57.86c.39-.06.82-.2,1.31-.42.48-.21.78-.34.89-.39.58-.3,1.02-.51,1.32-.61v-.06c0-.45-.02-.85-.05-1.19-.03-.34-.16-.52-.37-.52-.32,0-.95.24-1.87.73-.93.48-1.39.83-1.39,1.05v1.36c.06.04.12.06.16.06ZM100.56,65.55c.06.02.18,0,.35-.08.17-.08.3-.11.39-.11,0,.24-.06.45-.19.63-.13.18-.3.38-.52.6-.22.24-.38.43-.48.58-.11.15-.16.32-.16.52l.52.55c.95,1.01,1.75,1.92,2.42,2.71.67.8,1,1.35,1,1.65,0,.17-.29.34-.87.5-.58.16-1.02.24-1.32.24l-1.13.06c-.17,0-.41.02-.71.06-.3.04-.54.06-.71.06-.6.06-1.35-.01-2.23-.23-.88-.22-1.55-.48-2-.81-.52-.37-.87-.58-1.07-.65-1.57-1.44-2.36-2.72-2.36-3.84,0-.13.02-.25.05-.37.03-.12.05-.24.05-.37.04,0,.27.3.68.9.13.15.49.61,1.08,1.37.59.76,1.01,1.23,1.24,1.41,1.53.97,3.11,1.45,4.75,1.45.56,0,1.1-.06,1.63-.19.53-.13.88-.21,1.05-.23,0-.17-.19-.58-.58-1.21-.39-.64-.8-1.23-1.23-1.78-.43-.55-.72-.82-.87-.82s-.36.09-.63.27c-.27.18-.49.27-.66.27-.5,0-.83-.02-1-.06-.21-.09-.53-.51-.95-1.28-.42-.76-.63-1.21-.63-1.34s.05-.23.15-.29c.1-.06.22-.1.37-.1.21,0,.38.07.48.21.11.14.23.35.36.63.15.34.29.6.42.76.13.16.33.24.61.24.32,0,.77-.22,1.34-.66.57-.44,1.03-.87,1.37-1.28ZM92.71,61.77s.23.29.68.74.71.68.78.68h.06c.13-.54.19-1.21.19-2v-1.13c-.13,0-.45.25-.95.76-.51.51-.76.82-.76.95ZM97.91,58.9v-.29l.19-1.97c0-1.08.18-1.61.55-1.61.41,0,.61.18.61.55v2.94l.06.26v1.29c0,.13-.09.15-.26.06l-.23.19c-.62,0-.94-.47-.94-1.42ZM100.36,53.79c0-.28.17-.42.52-.42.28,0,.51.3.68.89.17.59.3,1.26.39,2,.09.74.14,1.19.16,1.34.04.22.08.46.11.73.03.27.05.46.05.57v3.55c0,.39-.08.67-.24.86-.16.18-.45.27-.86.27-.28,0-.67-.1-1.16-.31-.5-.2-.93-.47-1.29-.81-.37-.33-.55-.66-.55-.98,0-.11.05-.19.15-.26.1-.06.21-.1.34-.1h.19c.15.13.32.28.52.45.19.17.38.32.55.44.17.12.39.18.65.18h.23c.06-.04.13-.38.21-1s.11-1.11.11-1.45c0-.71-.11-1.98-.32-3.81l-.16-1.32c0-.06-.04-.19-.13-.37-.09-.18-.13-.33-.13-.44ZM105.04,65.45c0-.19.04-.32.13-.39.09-.06.23-.1.42-.1.15,0,.5.17,1.05.5.55.33,1.05.69,1.52,1.08.46.39.69.68.69.87,0,.24-.03.39-.08.47-.05.08-.21.11-.47.11-.22,0-.81-.38-1.79-1.13-.98-.75-1.47-1.23-1.47-1.42Z"/>
  <path class="st0" d="M120.61,51.76l.16.1c0-.13.06-.23.19-.29s.26-.1.39-.1c.17,0,.33.04.47.13.14.09.24.19.31.32v.52c0,.62-.18,1.36-.53,2.21-.36.85-.75,1.49-1.18,1.92,0,.09-.03.23-.1.44-.07.21-.13.31-.19.31l-.06-.03c-.13.39-.37.75-.73,1.08-.36.33-.57.53-.63.6-.43.43-.93,1.04-1.49,1.84-.71.93-1.22,1.54-1.52,1.84-.11.09-.25.21-.44.36-.18.15-.3.29-.34.42-.13.15-.33.37-.6.65-.27.28-.51.47-.73.58-.04,0-.06-.09-.06-.26,0-.21.36-.71,1.07-1.49.71-.78,1.11-1.23,1.2-1.36l.74-.84c3.06-3.83,4.59-6.52,4.59-8.07,0-.19-.08-.37-.23-.52-.15-.15-.25-.27-.29-.35ZM119.42,59.87c0-.15.02-.23.07-.23.21,0,.45.22.71.65l-.03.78c0,.5.01.93.03,1.29.02.37.04.68.06.94.11,1.03.16,1.8.16,2.29l.03,2.29c0,.95-.06,1.5-.19,1.65.04.47.07,1.03.07,1.68,0,.21-.02.36-.05.44-.03.08-.15.11-.34.11-.11,0-.22-.04-.32-.11-.11-.08-.21-.11-.29-.11l-.1.16-.19-.16v-.42c0-.43.03-.93.08-1.49.05-.56.09-.94.11-1.13.13-.93.19-1.74.19-2.45l-.03-1.61c-.04-.3-.06-.76-.06-1.39,0-.28.03-.69.1-1.23.04-.6.07-1.03.07-1.29,0-.11-.01-.21-.03-.32-.02-.11-.03-.21-.03-.32ZM123.42,68.1c0-.22.12-.37.36-.47.24-.1.59-.2,1.07-.31.32-.04.57-.11.74-.19.15-.06.31-.15.48-.24.17-.1.36-.2.55-.31,1.05-.56,1.93-1.01,2.63-1.34.7-.33,1.19-.5,1.47-.5.09,0,.14.04.16.11.02.08.03.16.03.24,0,.17-.51.54-1.52,1.11-1.01.57-2.09,1.11-3.25,1.61-1.15.51-1.89.76-2.21.76-.15,0-.27-.05-.37-.15-.1-.1-.15-.21-.15-.34ZM128.95,46.24s.03-.1.1-.16c.06-.06.12-.1.16-.1.11.04.19.17.26.37s.12.34.16.4v.52c0,.62-.06,1.27-.19,1.94-.13.67-.21,1.08-.23,1.23-.3,1.44-.45,2.53-.45,3.26,0,.6.09,1.04.27,1.32.18.28.53.42,1.05.42h.45c.17-.21.72-.53,1.65-.95s1.89-.8,2.89-1.13c1-.33,1.65-.5,1.95-.5h.19c.02.09.08.17.18.26.1.09.15.18.15.29,0,.28-.46.87-1.39,1.78-.93.9-1.92,1.74-2.97,2.52-1.05.78-1.79,1.16-2.2,1.16,0-.11.12-.27.36-.5s.6-.55,1.08-.98c.48-.43.82-.73,1.02-.9.65-.52,1.25-1.03,1.81-1.53s.86-.85.9-1.02h-.06l-.65.06h-.13l-.9.48c-1.1.62-2.03,1.1-2.79,1.44-.76.33-1.47.5-2.12.5s-1.11-.21-1.34-.63c-.23-.42-.34-.98-.34-1.7,0-1.1.25-2.58.74-4.46l.19-.87c.04-.09.11-.29.21-.6.1-.31.15-.54.15-.69,0-.17-.03-.39-.08-.65s-.08-.45-.08-.58ZM130.53,59.51c0-.11.03-.21.08-.31.05-.1.12-.15.21-.15.99,0,1.65.24,1.97.73.32.48.49,1.19.49,2.12,0,.41-.02.72-.07.94,0,.17,0,.38-.02.61-.01.24,0,.52.02.84v.52c0,.78-.04,1.95-.13,3.52-.13,1.31-.19,2.51-.19,3.58l.06.13c0,.11-.19.34-.58.71-.19-.32-.78-.75-1.75-1.29-.69-.41-1.22-.75-1.58-1.03-.37-.28-.55-.58-.55-.9l.1-.06s.1.03.18.08c.08.05.13.08.18.08h.1l.16-.1c1.25,1.05,2.11,1.58,2.58,1.58h.06c.13-.24.19-.54.19-.9l-.03-.87c0-.26.03-.53.1-.81v-6.78c-.04-.11-.06-.26-.06-.45v-.45c0-.21-.06-.4-.19-.55-.11-.13-.34-.25-.71-.35-.17-.04-.32-.1-.44-.16s-.18-.15-.18-.26ZM136.25,53.92s.06-.04.06-.11-.02-.11-.06-.11-.07.04-.07.11.02.11.07.11ZM137.02,66.1c0-.34.15-.52.45-.52.28,0,1.07.35,2.36,1.05s1.94,1.11,1.94,1.24c0,.54-.35.81-1.07.81-.11,0-.48-.19-1.11-.56-.64-.38-1.22-.77-1.76-1.18-.54-.41-.81-.69-.81-.84Z"/>
  <path class="st0" d="M161.25,53.28c.37-.8.88-1.81,1.55-3.05.67-1.24,1.1-1.86,1.29-1.86.15,0,.26.02.32.06.06.04.1.13.1.26,0,.34-.08.73-.23,1.16-.13.06-.45.59-.95,1.58-.51.99-.8,1.55-.89,1.68h.1c.34,0,.75-.08,1.23-.23.47-.15.97-.35,1.5-.6.53-.25.88-.4,1.05-.47l1.65-.06h.06c.24,0,.53.04.89.13.36.09.61.19.76.32l.94.97c.21.22.32.57.31,1.07-.01.5-.02.78-.02.84,0,.13-.03.28-.1.45-.06.17-.1.32-.1.45l.1.13c0,1.85-.48,3.96-1.44,6.33-.96,2.37-2.06,4.44-3.31,6.2-.11.13-.21.29-.31.47-.1.18-.2.33-.31.44s-.26.16-.45.16l-2.62-2.65-1.87-1.84-.1-.19c0-.06.03-.17.1-.32.06-.15.15-.23.26-.23.22,0,1.12.74,2.71,2.23,1.01.93,1.55,1.39,1.61,1.39.26,0,.76-.79,1.52-2.37.75-1.58,1.28-2.76,1.58-3.54.04-.11.11-.39.21-.84.1-.45.22-.77.37-.97.54-1.92.81-3.68.81-5.3v-1c-.15-.39-.41-.69-.78-.9-.37-.21-.76-.32-1.2-.32-.47,0-.91.06-1.31.19-.4.13-.9.31-1.5.55-.8.32-1.36.52-1.68.58-.19.06-.48.12-.87.16-.41.04-.72.1-.94.16-.13.04-.73,1.02-1.81,2.92-1.08,1.91-1.64,2.94-1.68,3.12-.24.65-.36,1.53-.36,2.65,0,.04-.04.12-.13.23-.02.11-.07.46-.14,1.07-.08.6-.21,1.25-.4,1.95-.19.7-.48,1.05-.87,1.05h-.16c-.06-.04-.31-.27-.73-.68s-.74-.61-.95-.61c-.11,0-.26.04-.45.13-.19.09-.36.13-.48.13-.17,0-.29-.05-.34-.15-.05-.1-.08-.24-.08-.44,0-.13.06-.27.18-.44.12-.16.18-.3.18-.4,0-.26-.4-.61-1.2-1.05-.8-.44-1.41-.71-1.84-.79-.04-.13-.07-.3-.07-.52,0-.17.36-.46,1.07-.86.71-.4,1.47-.76,2.29-1.1.82-.33,1.36-.5,1.62-.5.41,0,.66.09.76.27.1.18.15.5.15.95h.13l.52-.48.1-1.23v-2.2c-.02-.13-.07-.33-.15-.6-.08-.27-.17-.4-.27-.4-.22,0-1.13.37-2.73,1.11-1.6.74-2.67,1.25-3.18,1.53-.06.04-.22.12-.45.24-.24.12-.5.24-.78.37v.26c0,.45.05.9.16,1.34.11.44.26,1,.45,1.66.41,1.31.61,2.36.61,3.13,0,.19-.04.4-.11.63s-.2.34-.37.34c-.37,0-.67-.4-.9-1.21-.24-.81-.4-1.69-.48-2.65-.09-.96-.14-1.52-.16-1.7-.04-.28-.16-.78-.35-1.49-.37-1.12-.55-1.98-.55-2.58,0-.04.03-.1.08-.16s.11-.1.18-.1c.32.04.68.56,1.07,1.55h.16c.13-.04.38-.14.74-.29.37-.15.76-.33,1.2-.55l1.97-.87c.28-.09.69-.3,1.23-.65.45-.3.86-.54,1.21-.71.36-.17.72-.26,1.08-.26.58,0,.99.31,1.23.92.24.61.32,1.25.26,1.92l.1.1c.06,0,.41-.42,1.03-1.26.62-.84,1.19-1.66,1.7-2.47.51-.81.74-1.29.7-1.44ZM151.85,48.89v-.1l.26-.1h.87c1.64,0,2.46.14,2.46.42,0,.73-.31,1.49-.92,2.26-.61.78-1.34,1.54-2.18,2.29l-.1.19-1.13,1.16c-.24.22-.79.7-1.65,1.45l-.29.06h-.13c-.09,0-.13-.05-.13-.16.11-.37.48-.8,1.13-1.29.45-.34.75-.61.9-.81.11-.11.68-.77,1.71-1.99,1.03-1.22,1.55-2.08,1.55-2.6,0-.04-.37-.19-1.1-.44-.73-.25-1.15-.37-1.26-.37ZM151.85,62.68v.16c0,.06.26.26.78.58.52.32.82.48.9.48s.18-.09.29-.27c.11-.18.19-.29.26-.31l.87-1.78v-.32h-.06c-.32.17-.83.41-1.52.71-.6.24-1.11.48-1.52.74ZM154.95,65.13c0,.13.08.29.24.47.16.18.3.3.4.34l.1-.06c.11-.5.19-.87.26-1.13.19-.73.29-1.31.29-1.74h-.06c-.04.13-.13.27-.26.42-.13.15-.21.26-.26.32-.04.06-.17.25-.39.55-.22.3-.32.58-.32.84ZM161.15,58.09c0-.17.06-.28.18-.32.12-.04.29-.06.5-.06.24,0,.87.36,1.89,1.07,1.02.71,1.53,1.16,1.53,1.36,0,.62-.32,1.17-.97,1.65h-.13c-.09,0-.16-.01-.21-.03-.05-.02-.08-.09-.08-.19,0-.13.01-.24.03-.34.02-.1.03-.21.03-.34v-.06c-.19-.22-.43-.43-.69-.63-.27-.2-.46-.35-.57-.44-.65-.45-1.1-.84-1.36-1.16,0-.04-.03-.11-.08-.21-.05-.1-.08-.19-.08-.27Z"/>
  <path class="st0" d="M204.17,51.53c.3.13.45.34.45.65,0,.24-.08.44-.23.61-.15.17-.34.26-.58.26-.17,0-.38-.07-.63-.21-.25-.14-.45-.21-.6-.21h-.49l.07.13c-.07-.09-.17-.13-.32-.13-.11-.02-.27-.03-.48-.03-.8,0-2.11.24-3.94.71l-2.94.71c-.32,0-.54.06-.65.19v.06c.37.04.69.15.97.31.28.16.42.38.42.66,0,.78-.67,2.08-2,3.92-1.34,1.84-2.81,3.54-4.41,5.1-1.6,1.56-2.71,2.34-3.31,2.34,0-.3.43-.73,1.29-1.29l2.16-2.13c.47-.47,1.11-1.23,1.91-2.26.8-1.03,1.51-2.07,2.13-3.12.62-1.04.94-1.84.94-2.37l-.1-.1c-.06-.04-.21-.2-.45-.48-.24-.28-.39-.42-.45-.42-.52,0-1.36.21-2.52.61-1.1.34-1.86.55-2.29.61l-1.97.36-1.55.29c-.19.22-.49.35-.89.4s-.62.08-.66.08c-.13.02-.26.06-.4.11-.14.05-.24.09-.31.11-.34.17-.66.26-.94.26-.41,0-.88-.13-1.42-.4s-.9-.59-1.1-.95c.02-.06.1-.12.23-.16.13-.04.21-.11.26-.19.32,0,.65.06.97.19.39.11.67.16.84.16.3,0,.75-.11,1.36-.32.21-.09.52-.17.9-.26,1.05-.21,2.59-.5,4.62-.84.97-.15,1.72-.28,2.26-.39.34-.06,1.08-.27,2.2-.61l1.49-.45h.26c.32-.04,1.22-.25,2.68-.61.8-.24,1.48-.42,2.04-.55.09-.06.47-.14,1.15-.23.68-.09,1.2-.14,1.57-.16l.23.06h.1c.11,0,.31-.04.6-.11.29-.08.5-.11.63-.11.32,0,.63.06.94.19ZM200.33,58.37s-.06.06-.06.08c0,.09.02.18.06.27.04.1.06.17.06.21,0,.47-.07.95-.21,1.44-.14.48-.33,1.06-.56,1.73l-.29.84c-.06.15-.16.35-.29.6-.13.25-.19.46-.19.63s.02.28.06.32c-.28.24-.62.9-1.03,2-.28.8-.55,1.43-.81,1.89-.26.46-.55.69-.87.69-.19,0-.62-.55-1.29-1.66-.67-1.11-1.08-1.86-1.23-2.24-.13-.15-.29-.32-.48-.5-.19-.18-.36-.35-.48-.5-.09-.04-.14-.09-.16-.15s-.03-.11-.03-.18c0-.09.05-.15.15-.18s.19-.05.27-.05c.17,0,.36.09.55.27.19.18.34.3.45.34.37.17.87.83,1.52,1.97.39.67.63,1,.74,1h.19c.28-.5.66-1.37,1.13-2.62l.58-1.65v-.16c.04-.11.1-.29.18-.55.08-.26.15-.48.21-.68.02-.06.06-.23.13-.5.06-.27.16-.46.29-.57-.04,0-.06-.04-.06-.13,0-.15.03-.38.1-.68s.1-.52.1-.65v-.32l-.13-.19h-1.55c-.32-.15-.69-.34-1.1-.58-.41-.24-.61-.41-.61-.52v-.13l.13-.06c.43,0,.75.01.97.03l.94.03.71.03c.34,0,.62-.05.84-.16.09.02.25.08.48.18.24.1.41.23.52.39.11.16.16.35.16.57,0,.02-.02.05-.06.08Z"/>
  <path class="st0" d="M213.86,53.47c0-.15.16-.28.47-.39.31-.11.68-.2,1.1-.27.42-.08.68-.12.79-.15.26-.04.63-.19,1.13-.45.65-.3,1.12-.45,1.42-.45.26,0,.47.2.63.61s.27.87.34,1.39c.07.52.1.81.1.87l.06,1.23v8.91c-.04.78-.06,1.84-.06,3.2v.87l.16.16c.32.06.57.1.74.1h.06c.45,0,1.14-.17,2.05-.52.92-.34,1.74-.76,2.49-1.24s1.16-.93,1.24-1.34c.06-.15-.13-.39-.58-.71-.45-.32-1.1-.74-1.94-1.26-.9-.6-1.55-1.04-1.94-1.31-.39-.27-.58-.49-.58-.66v-.06l.06-.23.1-.13.16.13h.1c.39.19.83.43,1.32.71.5.28.96.54,1.39.77,1.62.97,2.5,1.45,2.65,1.45.3,0,.62-.47.95-1.41.33-.94.63-1.96.89-3.08.26-1.12.39-1.81.39-2.07-.26,0-.59.11-1,.34-.41.23-.94.57-1.58,1.02-.84.54-1.55.96-2.13,1.28-.58.31-1.11.47-1.58.47h-.07c-.06-.06-.12-.15-.16-.24-.04-.1-.09-.18-.13-.24v-.1c0-.21.16-.41.48-.58.32-.17.76-.35,1.32-.55.56-.19.89-.33,1-.42l.9-.58c.78-.52,1.44-.93,2-1.23.56-.3,1.03-.45,1.42-.45h.36c.19.39.29.73.29,1.03,0,.45-.13,1.23-.4,2.34-.27,1.11-.6,2.16-.98,3.15-.39.99-.74,1.61-1.07,1.87.32.39,1.14,1.02,2.46,1.89s2.24,1.44,2.78,1.7c.11.04.39.12.86.24.46.12.75.23.86.34.06.02.45.1,1.16.23.41.04.66.08.74.1.11.02.37.04.79.05.42.01.87.08,1.34.21.47.13.71.4.71.81,0,.17-.05.31-.16.42-.11.11-.24.16-.39.16s-.27-.05-.36-.16c-.09-.11-.14-.17-.16-.19,0,.11-.04.16-.13.15-.09-.01-.14-.02-.16-.02-.47,0-1.17-.06-2.08-.18-.92-.12-1.43-.26-1.53-.44-.06.02-.18.03-.36.03-.71,0-1.43-.22-2.15-.65s-1.58-1.02-2.57-1.78c-.65-.5-1.11-.83-1.39-1-.11-.06-.27-.15-.48-.24-.22-.1-.38-.22-.49-.37-.84.95-1.85,1.75-3.02,2.41-1.17.66-2.34.98-3.5.98h-.13l-.55-.13h-.06c-.22,0-.33.12-.36.37-.02.25-.06.41-.13.5-.06.09-.18.13-.35.13-.39,0-.96-.26-1.71-.77-.75-.52-1.44-1.11-2.05-1.78-.61-.67-.92-1.19-.92-1.58,0-.28.1-.42.29-.42l.78.84c.54.67,1.02,1.21,1.44,1.62.42.41.81.61,1.18.61.11,0,.17-.11.19-.34.02-.23.08-.36.16-.4v-2.58l.06-.81v-4.04l-.06-.13.06-.19v-.06l-.06-1.65h-.16c-.11,0-.22.04-.34.11-.12.08-.23.12-.34.15-.5.13-.84.31-1.05.53s-.39.55-.57.98c-.17.39-.33.7-.48.94-.04.09-.12.19-.24.31-.12.12-.18.23-.18.34s.18.16.55.16h.74l.19-.06c.11.02.17.07.19.15.02.08.03.17.03.27,0,.3-.16.54-.48.71-.32.17-.65.26-.97.26-.3,0-.62-.06-.95-.18-.33-.12-.51-.29-.53-.5-.02-.17.02-.36.13-.56.11-.2.3-.49.58-.86.19-.24.37-.5.53-.79s.24-.53.24-.73c-.17,0-.42.11-.74.34s-.52.36-.58.4c-.5.28-.81.6-.94.95-.13.35-.21.85-.23,1.47,0,.09-.01.27-.03.55-.02.28-.05.54-.1.78-.13.58-.29,1.44-.48,2.58-.06.22-.18.78-.34,1.7-.16.92-.35,1.78-.56,2.6-.15.54-.38.81-.68.81-.19,0-.38-.05-.55-.15-.17-.1-.26-.23-.26-.4s.11-.34.34-.52c.23-.17.36-.39.4-.65.52-2.09.92-3.83,1.21-5.23.29-1.4.44-2.59.44-3.59-.28,0-.76.13-1.45.39-.95.41-1.69.61-2.23.61h-.74c-.13,0-.24-.06-.34-.18-.1-.12-.15-.23-.15-.34,0-.13.09-.24.26-.32.19-.02.45-.05.76-.1.31-.04.57-.1.76-.16.32-.04.93-.22,1.83-.53.89-.31,1.35-.54,1.37-.69.06-.62.1-1.3.1-2.03l-.03-2.46s.02-.1.06-.16c.04-.06.06-.12.06-.16,0-.26-.03-.55-.08-.89-.05-.33-.09-.58-.11-.73-.15-.73-.23-1.28-.23-1.65,0-.11.01-.19.03-.26.02-.06.09-.1.19-.1.19,0,.34.18.44.53.1.36.19.82.28,1.41.08.58.15.89.19.94v4.2c.06.17.1.31.1.42v.29c.34,0,.8-.12,1.36-.35.56-.24.84-.5.84-.78,0-.21-.06-.4-.19-.55-.13-.15-.28-.31-.45-.47-.17-.16-.26-.32-.26-.47,0-.32.14-.48.42-.48.47,0,.81.3,1.02.89.2.59.32.92.34.98.06-.02.14-.06.23-.11.09-.05.15-.09.19-.11.11-.04.41-.13.9-.27.5-.14.74-.25.74-.34v-3.33c-.02-.13-.03-.32-.03-.58s-.03-.48-.08-.68-.16-.29-.31-.29c-.28,0-.69.13-1.23.39-.45.28-.84.42-1.16.42-.04,0-.1-.01-.18-.03-.08-.02-.15-.03-.21-.03l-.16.06h-.48s-.15,0-.31.02-.33,0-.5-.05c-.17-.04-.26-.17-.26-.39ZM212.57,52.5s.03-.01.03-.03-.01-.03-.03-.03c-.04,0-.06.01-.06.03s.02.03.06.03ZM217.06,45.43c0-.17.21-.26.65-.26.3,0,.53.04.68.13s.23.26.23.52c0,.24-.25.69-.76,1.37-.51.68-1.06,1.3-1.65,1.87-.59.57-1.04.86-1.34.86-.09,0-.13-.06-.13-.19,0-.3.43-.84,1.29-1.61.45-.47.82-.88,1.1-1.23.28-.34.42-.65.42-.9,0-.11-.08-.19-.24-.24-.16-.05-.24-.16-.24-.31ZM221.97,62.39s.06-.02.06-.06-.02-.06-.06-.06-.07.02-.07.06.02.06.07.06ZM222.03,62.58s.06-.03.06-.1-.02-.1-.06-.1c-.02,0-.03.03-.03.1s.01.1.03.1ZM223.75,48.76c0-.26.09-.39.26-.39.15,0,.27.17.36.52.09.34.19.52.32.52.24,0,.62-.05,1.16-.16.5-.09.88-.13,1.16-.13.78,0,1.47.13,2.1.39.62.26.94.72.94,1.39,0,.32-.11.8-.32,1.42-.17.45-.26.82-.26,1.1h.19c.11-.13.52-.57,1.24-1.32.72-.75,1.19-1.13,1.41-1.13l.13.06v.36c0,.26-.23.68-.68,1.26s-.95,1.11-1.5,1.6c-.55.48-.95.73-1.21.73-.58,0-.87-.25-.87-.74v-.06l.87-2.87v-.32c0-.34-.22-.59-.66-.74-.44-.15-.9-.23-1.37-.23-1.18,0-1.94.14-2.26.42.04.56,0,1.64-.15,3.25s-.38,3.05-.73,4.34c-.34,1.29-.8,1.94-1.36,1.94-.11,0-.16-.13-.16-.39,0-.13.04-.28.11-.45s.12-.3.15-.39c.17-.28.27-.53.29-.74.62-2.69.94-4.94.94-6.75,0-.26-.03-.48-.1-.68-.26.13-.54.19-.84.19-.09,0-.13-.03-.13-.1,0-.17.07-.3.21-.37.14-.08.31-.15.5-.21.19-.06.31-.15.36-.26v-.19c0-.13-.02-.27-.05-.44-.03-.16-.05-.3-.05-.4Z"/>
  <path class="st0" d="M246.03,55.54c.5,0,1.22-.19,2.16-.58.71-.3,1.22-.48,1.52-.55,1.23-.26,3.19-.76,5.88-1.52.3-.09,1.1-.31,2.39-.68s2.52-.67,3.68-.9h.23c.15,0,.3.04.45.11.15.08.23.18.23.31,0,.32-.1.54-.29.66-.19.12-.46.19-.79.23-.33.03-.58.06-.73.08-.02,0-.33.25-.94.74-.43.37-.67.55-.71.55,0,.28-.12.6-.36.97-.24.37-.38.59-.42.68-.19.26-.37.53-.52.81-.15.28-.23.51-.23.68,0,.22.08.52.23.9.02.09.07.25.15.48.08.24.11.45.11.65,0,.11-.01.19-.03.26-.02.06-.03.14-.03.23,0,.17.01.34.03.5.02.16.03.32.03.47,0,.47-.02,1.21-.06,2.2-.09.73-.13,1.48-.13,2.23v1.71c0,.09.02.18.06.29.04.11.06.2.06.29,0,.62-.08,1.23-.24,1.81-.16.58-.47.87-.92.87-.13,0-.4-.32-.81-.97-.41-.65-.61-1.05-.61-1.23,0-.15.05-.27.16-.37.11-.1.17-.16.19-.18.09.06.22.17.4.31.18.14.29.2.34.18l.06-.1.06-1.32c0-.3.03-.72.1-1.26l.03-1.26.07-.1v-4.81c0-.11-.07-.16-.19-.16h-.06c-.26.19-.57.54-.94,1.03-.09.11-.2.25-.34.44-.14.18-.26.32-.37.4-.02.15-.23.41-.63.79s-.82.74-1.26,1.1c-.44.35-.67.51-.69.47-.17.24-.94.82-2.29,1.74-.65.45-.97.69-.97.71-.6.45-1.45.97-2.55,1.57-1.1.59-1.86.89-2.29.89-.17,0-.26-.02-.26-.06.21-.28.51-.52.87-.71.37-.19.82-.42,1.36-.68.71-.28,1.17-.5,1.39-.65.32-.21.95-.68,1.87-1.39.71-.54,1.24-.93,1.58-1.16.21-.19.42-.4.61-.61.37-.43.7-.72,1-.87l1.65-1.61c.3-.47.61-.89.94-1.26.43-.56.73-.98.9-1.26,0-.21-.08-.37-.24-.47-.16-.1-.42-.19-.76-.27-.24-.09-.43-.16-.57-.23-.14-.06-.21-.15-.21-.26s.02-.19.06-.26h.26c.26,0,.58.09.97.26.09.02.23.07.44.15.21.08.38.11.53.11.06,0,.33-.47.81-1.4s.82-1.6,1.03-1.99c0-.04-.06-.06-.19-.06-.5,0-1.06.09-1.7.26-.64.17-1.3.4-2,.68-.7.28-1.16.46-1.37.55-1.38.47-2.59.85-3.65,1.13l-1.81.58c-.13.06-.35.17-.68.32-.32.15-.56.23-.71.23-.28,0-.68-.13-1.2-.4-.52-.27-.98-.59-1.39-.95-.41-.37-.61-.67-.61-.9.24,0,.58.12,1.03.36.3.13.62.25.95.36s.62.16.86.16ZM261.83,62c0-.11.02-.19.06-.26l.48.1.13.1c.19.02.59.12,1.19.29.37.15.74.27,1.13.36.17.02.46.04.87.06.41.02.73.09.97.19l.32.06.23-.16c.21-.04.57.09,1.07.39s.74.58.74.84c0,.15-.06.3-.19.44-.13.14-.29.21-.48.21-.3,0-.72-.09-1.26-.26-.54-.15-.96-.23-1.26-.23,0-.11-.14-.21-.44-.32-.29-.11-.61-.22-.95-.32-.82-.24-1.46-.46-1.92-.68-.46-.21-.69-.48-.69-.81Z"/>
  <path class="st0" d="M282.11,47.43c0-.09.03-.19.08-.31.05-.12.13-.18.24-.18.41,0,.71.14.89.42.18.28.27.61.27,1,0,.6-.09.95-.26,1.03-.09.24-.22.54-.4.92-.18.38-.32.62-.4.73-.28.41-1.16,1.39-2.65,2.96-1.49,1.56-2.29,2.34-2.42,2.34-.21,0-.32-.04-.32-.13,0-.15.27-.53.81-1.15.54-.61.92-1.03,1.16-1.24l.81-.81c.5-.56,1.18-1.48,2.07-2.75l.71-1c0-.15.03-.31.08-.48.05-.17.08-.31.08-.42v-.1c0-.15-.12-.3-.37-.44-.25-.14-.37-.27-.37-.4ZM277.62,62.68c0-.3.33-.76,1-1.39.3-.3.48-.5.55-.58.47-.65,1.02-1.51,1.65-2.58.5-.77,1.03-1.61,1.62-2.52.19-.19.31-.32.36-.39.09-.28.13-.72.13-1.32.19,0,.34.07.45.21s.16.3.16.47c0,.58-.28,1.32-.82,2.21-.55.89-1.25,1.95-2.12,3.18l-.61.81c-.06.11-.24.31-.53.61-.29.3-.47.56-.53.78-.06.09-.19.21-.39.37-.19.16-.33.25-.42.27l-.16.1c-.15,0-.24-.02-.28-.05s-.05-.09-.05-.18ZM281.3,59.48c0-.11,0-.19.02-.24.01-.05.06-.08.15-.08.71,0,1.07.89,1.07,2.68,0,.77-.07,2.24-.21,4.39-.14,2.15-.46,3.36-.95,3.62-.37,0-.55-.3-.55-.9,0-.09.04-.26.13-.53.08-.27.13-.45.13-.53.04-.47.14-1.18.29-2.13.02-.17.1-.69.23-1.57s.19-1.71.19-2.5c0-.26-.09-.67-.26-1.23-.15-.45-.23-.77-.23-.97ZM292.64,55.8c.39-.3,1.53-.84,3.42-1.62,1.89-.78,3.02-1.16,3.39-1.16h.29c.17.06.26.25.26.55v.1l-.68.65c-.19-.02-.3-.02-.32.02s-.06.05-.13.05-.12-.02-.16-.06c-.04-.04-.11-.06-.19-.06-.41,0-1.01.22-1.81.65-.5.26-.84.42-1.03.48v.35c0,.34.08.86.23,1.55.02.15.05.39.1.73.04.33.07.62.07.86l.1,1.84c.02.67.05,1.82.1,3.46.04,1.64.06,3.09.06,4.36,0,.19-.01.35-.03.47s-.03.24-.03.37c0,.32.01.57.03.74l.03.87v.74c0,.22-.1.41-.31.58-.21.17-.39.26-.57.26h-.1c-.06,0-.12-.02-.18-.05s-.1-.05-.15-.05c-.28-.41-.47-.66-.58-.74-.24-.28-1.4-1.29-3.49-3.04l-1.16-.97.16-.13c.39,0,.88.15,1.49.44.6.29,1.2.66,1.79,1.11.59.45.94.71,1.05.78.04.04.12.12.23.24.11.12.19.18.26.18.21,0,.32-.47.32-1.42,0-.62-.01-1.1-.03-1.42l-.03-1.39v-.9s.06-.18.06-.42c0-.5-.01-.86-.03-1.1l-.03-1.13.03-1.84c.02-.41.03-1.02.03-1.84,0-2-.13-3-.39-3-.3,0-.71.14-1.23.42-.52.28-.84.44-.97.48-2.48,1.03-4.22,1.51-5.23,1.42l-.26.06c-.19,0-.42-.07-.66-.21-.25-.14-.37-.3-.37-.47s.3-.58.89-1.23c.59-.65,1-.97,1.21-.97.04,0,.06.08.06.23,0,.19-.17.45-.5.77-.33.32-.52.52-.57.58v.06c0,.11.17.13.52.06.52,0,1.01-.06,1.47-.18.46-.12,1.06-.31,1.79-.57.6-.21,1.19-.4,1.78-.55ZM288.09,47.69c0-.43.16-.65.48-.65s.76.08,1.31.24c.55.16,1.08.33,1.6.5l1.16.39c.45.11,1.08.21,1.87.29.13.04.38.08.76.11s.73.1,1.05.21c.24.06.36.25.36.55,0,.22-.31.56-.94,1.03-.62.47-1.3.91-2.04,1.31-.73.4-1.2.6-1.39.6h-.06l-.06-.1.06-.32.68-.61c.11,0,.43-.2.97-.6.54-.4.81-.67.81-.82,0-.13-.89-.42-2.68-.87l-.74-.16-1.03-.42c-.95-.45-1.67-.68-2.16-.68Z"/>
</svg>