<?xml version="1.0" encoding="UTF-8"?>
<svg id="_图层_1" xmlns="http://www.w3.org/2000/svg" version="1.1" viewBox="0 0 841.89 595.28">
  <!-- Generator: Adobe Illustrator 30.3.0, SVG Export Plug-In . SVG Version: 2.1.3 Build 182)  -->
  <defs>
    <style>
      .st0 {
        fill: none;
        stroke: #231815;
        stroke-miterlimit: 10;
        stroke-width: 36px;
      }
    </style>
  </defs>
  <g id="icon_user">
    <path id="Vector" class="st0" d="M420.97,236.99c61.42,0,111.21-47.53,111.21-106.14s-49.8-106.14-111.21-106.14-111.22,47.53-111.22,106.14,49.8,106.14,111.22,106.14h0Z"/>
    <path id="Vector_2" class="st0" d="M134.98,552.39v18.19h571.94v-18.19c0-67.93,0-101.91-13.85-127.86-12.18-22.83-31.63-41.39-55.55-53.02-27.2-13.22-62.79-13.22-133.95-13.22h-165.23c-71.18,0-106.78,0-133.95,13.22-23.91,11.63-43.36,30.19-55.55,53.02-13.85,25.95-13.85,59.93-13.85,127.86h0Z"/>
  </g>
</svg>