<?xml version="1.0" encoding="UTF-8"?>
<svg id="_图层_1" xmlns="http://www.w3.org/2000/svg" version="1.1" viewBox="0 0 841.89 595.28">
  <!-- Generator: Adobe Illustrator 30.3.0, SVG Export Plug-In . SVG Version: 2.1.3 Build 182)  -->
  <defs>
    <style>
      .st0 {
        fill: #040000;
      }
    </style>
  </defs>
  <path class="st0" d="M427.73,132.96c97.96,0,195.78,5.56,291.27,16.45l5.19.62.25,5.07c2.72,47.25,4.09,95.1,4.09,142.47s-1.37,95.35-4.09,142.6l-.25,5.07-5.19.62c-95.35,10.89-193.44,16.45-291.27,16.45h0c-97.84-.12-195.78-5.69-291.15-16.58l-5.19-.62-.25-5.07c-2.72-47.25-4.09-95.1-4.09-142.47s1.24-95.23,3.96-142.47l.25-5.07,5.19-.62c95.48-10.89,193.43-16.45,291.27-16.45h0ZM712.44,160.67c-186.63-20.9-382.66-20.9-569.41.12-2.47,45.26-3.84,91.28-3.84,136.79s1.24,91.4,3.84,136.79h0c93.25,10.27,188.98,15.71,284.71,15.71s191.34-5.31,284.71-15.83c2.47-45.26,3.84-91.28,3.84-136.79s-1.24-91.4-3.84-136.79h-.01ZM452.59,292.64c5.56,0,11.25.87,17.07,2.72,6.18,1.97,11,5.69,14.22,11,3.71,6.31,4.46,12.99,1.6,20.53-2.22,6.18-6.31,11.37-9.77,15.71-7.91,9.52-42.54,44.4-42.67,44.53,6.8,0,37.85-.25,42.42-.25h.12c5.56,0,10.89-1.6,16.2-4.46v14.59h-82.98l.25-.25c.62-.5,55.03-58.12,58.62-65.55,3.22-6.56,2.59-16.95-3.71-22.64-4.09-3.59-8.78-5.44-13.36-5.69-19.05-.87-29.68,13.98-32.89,18.05l-1.24-13.49c4.33-4.46,17.07-14.96,36.11-14.96v.15ZM555.61,215.71c10.89,0,19.92,2.47,27.21,9.28,11.5,10.89,10.39,35.63,2.35,45.15-1.73,1.97-4.21,5.31-6.18,7.05-5.19,4.82-11.37,8.28-18.43,9.9l40.69,61.59c8.28,9.52,12.37,13.49,23.26,15.96v.25l2.22,1.12s-17.07,5.56-28.7.99c-5.56-2.1-7.55-5.31-9.9-8.53l-42.17-69.76h-22.51l1.24,48.72c.12,13.61,3.09,21.77,4.33,23.62,1.6,2.35,4.21,4.09,7.18,4.69l.75.25h-41.44l.25-.37c5.94-1.85,10.39-6.43,10.39-12.74,0-2.84,7.91-86.2,1.37-127.26-.62-4.33-7.05-8.53-10.89-9.9l58.87.25.12-.25h-.01ZM227.61,212.74c.75,0,1.37.5,1.73,1.12l58.75,123.43,58.75-123.43c.37-.75.99-1.12,1.73-1.12h8.65v5.94c2.84,38.95,7.67,76.8,13.11,114.9l3.46,22.64c1.24,5.69,4.46,8.28,9.4,10.15l.37.37.5,1.37h-38.59l.99-.99.62-.37h-.25c9.9-2.47,8.03-17.31,8.03-17.31l-8.28-109.83-58.75,128.38-58.75-128.38-8.28,109.83s-1.85,14.84,8.03,17.18c.25,0,.62.37.62.37l.99.99h-38.59l.5-1.37s.25-.37.37-.37c4.94-1.97,8.28-4.69,9.4-10.15l3.46-22.64c5.56-38.1,10.27-76.07,13.11-114.9v-5.81h8.9,0ZM523.82,227.21l-.25,49.97h.12l26.47-.37c8.03-.37,15.71-4.21,20.17-10.64,2.72-4.09,4.33-8.9,4.33-14.09,0-17.31-11.5-25.23-25.73-25.23l-25.23.37h.12-.01Z"/>
</svg>