<?xml version="1.0" encoding="UTF-8"?>
<svg id="_图层_1" data-name="图层_1" xmlns="http://www.w3.org/2000/svg" version="1.1" viewBox="0 0 481.24 113.39">
  <!-- Generator: Adobe Illustrator 30.3.0, SVG Export Plug-In . SVG Version: 2.1.3 Build 182)  -->
  <defs>
    <style>
      .st0 {
        fill: #231815;
      }
    </style>
  </defs>
  <path class="st0" d="M30.09,56.1l.99-.75,3.73-3.78c.17-.17.4-.66.7-1.49.23-.73.46-1.28.67-1.64.22-.36.52-.55.92-.55.07,0,.12.06.17.17.05.12.07.24.07.37,0,1.62-1.07,3.56-3.21,5.82-2.14,2.25-4.61,4.38-7.41,6.36-2.8,1.99-5.06,3.38-6.79,4.18-.3.03-.83.25-1.59.65-.76.46-1.31.7-1.64.7-.13,0-.22-.02-.27-.05-.05-.03-.07-.1-.07-.2,0-.2.23-.42.7-.67.46-.25.96-.49,1.49-.72.73-.33,1.19-.58,1.39-.75.1-.03.43-.3.99-.79.83-.73,1.52-1.28,2.09-1.64.56-.36,1.06-.56,1.49-.6.63-.73,1.38-1.44,2.26-2.14.88-.7,1.98-1.52,3.31-2.49ZM37.59,42.47c0-.1.09-.21.27-.32.18-.12.36-.17.52-.17.13,0,.35.07.65.2.3.13.45.27.45.4v1.44c.1.17.18.25.25.25h.15c.13-.07.38-.15.75-.25v-.99l.1-.15c.46-.3,1.1-.44,1.91-.42.81.02,1.28.02,1.42.02.63,0,1.05.05,1.27.15.22.1.32.4.32.9,0,.27-.25.49-.75.67-.5.18-1.24.39-2.24.62-1.72.4-2.7.76-2.93,1.09-.17.23-.25.86-.25,1.89l.15.35v.5c0,1.62-.13,2.75-.4,3.38,0,1.23-.02,2.12-.05,2.69l-.05,2.73c0,.33.02.64.05.92.03.28.05.57.05.87,0,.4-.15.73-.45.99-.3.27-.65.4-1.04.4h-.15c-1.26-1.13-1.89-2.32-1.89-3.58.13-.17.41-.25.85-.25l.7.05c.03-.7.13-1.69.3-2.98.27-2.49.36-4.56.3-6.22.1-.1.15-.22.15-.35,0-.23-.13-.41-.4-.55-1.03.86-2.63,1.69-4.8,2.49-2.17.8-3.97,1.19-5.39,1.19-.73,0-1.42-.11-2.06-.32-.65-.21-.97-.62-.97-1.22,0-.17,0-.27.02-.3.02-.03.11-.05.27-.05.23,0,.4.08.5.25.3.1.57.17.82.2.25.03.5.05.77.05.66,0,1.94-.27,3.83-.8,1.89-.53,3.6-1.12,5.12-1.76,1.52-.65,2.29-1.19,2.29-1.62,0-.2-.07-.57-.2-1.12-.13-.55-.2-.97-.2-1.27ZM36.95,61.76l2.93-1.04c.27-.07,1.58-.48,3.95-1.24,2.37-.76,4.05-1.14,5.05-1.14.93,0,1.54.36,1.84,1.07.3.71.45,1.62.45,2.71v.6l-.1.3c.03.96,0,1.92-.12,2.88-.12.96-.31,2.17-.57,3.63-.37,1.96-.6,3.46-.7,4.52-.03.33-.07.74-.12,1.22-.05.48-.09.87-.12,1.17-.13.17-.27.56-.4,1.19-.23.76-.45,1.33-.65,1.69s-.48.55-.84.55h-.15l-.4-.15s-.26-.29-.67-.77c-.41-.48-.82-.75-1.22-.82l-2.19-2.29c-.1-.4-.25-.73-.45-.99-.2-.27-.48-.4-.85-.4-.46,0-1.08.2-1.84.6-.1.03-.33.13-.7.27-.37.15-.73.24-1.09.27-.9.07-1.48.21-1.76.42-.28.22-.47.46-.57.75-.1.28-.23.42-.4.42-.76,0-1.28-.59-1.57-1.77-.28-1.18-.46-2.74-.52-4.7,0-.66-.03-1.28-.1-1.84l-.25-1.34c-.03-.23-.14-.97-.32-2.21-.18-1.24-.27-2.43-.27-3.56s.25-1.69.75-1.69l.1.15c.03.6.31,2.21.85,4.85.53,2.64.83,3.95.89,3.95,0-.17.15-.38.45-.65.6-.07,1.33-.26,2.21-.57.88-.32,1.43-.51,1.67-.57,1.16-.43,2.16-.76,3.01-.99.84-.23,1.63-.35,2.36-.35.23,0,.48.04.75.12.26.08.4.21.4.37v.1l-.55.8c-.1.13-1.62.6-4.57,1.42-2.95.81-4.56,1.22-4.82,1.22-.13,0-.27-.07-.42-.2-.15-.13-.31-.2-.47-.2v1.14l.45,2.93.2.2h.85c.73,0,1.52-.09,2.36-.27.84-.18,1.74-.45,2.68-.8.94-.35,1.57-.57,1.86-.67.07,0,.24.06.52.17s.42.26.42.42-.13.38-.4.65c-.27.26-.45.4-.55.4v.25c0,.17.12.37.37.62.25.25.47.42.67.52l1.39,1.34c.26.63.78.94,1.54.94h.1c.26-.66.46-1.45.6-2.36.13-.91.25-1.82.35-2.71l.3-2.49c.1-.53.21-1.21.32-2.04.12-.83.19-1.51.22-2.04l.1-.1c.07-1.23.15-2.07.25-2.54,0-1.76-.22-2.77-.65-3.03h-.5c-.66,0-1.31.15-1.94.45-.63.3-1.11.5-1.44.6-.27.07-.58.13-.94.2-.36.07-.65.12-.84.15-1.13.2-1.82.33-2.09.4l-1.39.45c-1.03.36-1.86.63-2.51.8-.65.17-1.33.25-2.06.25-.33,0-.6-.04-.8-.12-.2-.08-.3-.26-.3-.52,0-.3.05-.55.15-.75.17,0,.56-.03,1.19-.1.63-.1,1.18-.13,1.64-.1ZM38.49,33.57c0-.1.04-.19.12-.27.08-.08.16-.12.22-.12h.5c.99,0,1.94.33,2.83.99v.15c0,.9-.61,1.91-1.84,3.06-1.23,1.14-2.62,2.14-4.18,2.98-1.56.84-2.77,1.27-3.63,1.27,0-.33.25-.69.75-1.07.5-.38,1.29-.87,2.39-1.47,1.46-.86,2.56-1.59,3.31-2.19s1.12-1.26,1.12-1.99c0-.13-.27-.34-.82-.62-.55-.28-.8-.52-.77-.72ZM55.59,57.34h-.1c-.2-.1-.44-.18-.72-.25-.28-.07-.49-.12-.62-.15-.1-.03-.27-.07-.5-.12-.23-.05-.43-.12-.6-.22-1.36-.83-3.9-2.52-7.61-5.07-3.71-2.55-5.57-3.96-5.57-4.23v-.3c0,.1.93.58,2.78,1.44l1.39.6,3.03,1.79c1.82,1.03,3.31,1.85,4.45,2.46,1.14.61,2.33,1.17,3.56,1.67.7.3,1.86.56,3.48.8,1.36.23,2.39.46,3.08.7.3.27.45.68.45,1.24,0,.27-.25.4-.75.4-.73,0-1.86-.15-3.38-.45-.33-.07-.99-.2-1.99-.4l-.4.1Z"/>
  <path class="st0" d="M68.57,60.77c.13-.03.26-.12.4-.25.13-.13.25-.21.35-.25,3.55-2.09,5.78-3.13,6.71-3.13.4,0,.65.33.77.99.12.66.19,1.62.22,2.88,0,1.16.08,1.89.25,2.19.23.3.63.58,1.19.85.5.27.88.52,1.14.77.26.25.4.57.4.97,0,.76-.44,1.43-1.32,2.01-.88.58-1.73.87-2.56.87-.07,0-.16,0-.27.02-.12.02-.22,0-.32-.02-.1-.03-.15-.15-.15-.35,0-.26.11-.46.32-.6.21-.13.57-.28,1.07-.45.5-.1.88-.23,1.14-.4.27-.17.4-.45.4-.85,0-.17-.26-.33-.77-.5-.51-.17-.82-.28-.92-.35-.93-.7-1.39-2.27-1.39-4.72l.05-1.24-.15-.1c-.2,0-.54.13-1.02.4-.48.27-.99.56-1.52.89-1.06.7-1.94,1.23-2.64,1.59s-1.33.55-1.89.55c-.66,0-1.24-.35-1.74-1.04.07-.13,0-.29-.2-.47s-.3-.31-.3-.37v-.2c0-.07.04-.13.12-.2.08-.07.12-.15.12-.25.3.23.69.41,1.17.55.48.13.92.2,1.32.2ZM66.83,70.71c0-.17.27-.25.8-.25.17,0,.36.05.6.15.23.1.41.18.55.25.5.33.94.5,1.34.5.53,0,1.21-.13,2.04-.4.1-.03.36-.11.8-.22.43-.12.86-.17,1.29-.17,2.35,0,4.35.19,5.99.57s4.09,1.09,7.33,2.11c5.87,1.69,11.32,2.54,16.36,2.54h1.24c.13,0,.23-.03.3-.1.07-.07.15-.1.25-.1.8-.03,1.89-.17,3.28-.4,1.82-.3,3.17-.45,4.03-.45.17,0,.35.03.55.1.2.07.3.2.3.4,0,.17-.07.38-.22.65-.15.26-.31.4-.47.4-.07,0-.12-.02-.15-.05-.17.07-.37.12-.6.17-.23.05-.43.12-.6.22l-1.24.4c-.13.03-.38.05-.75.05h-.85c-.8,0-1.34.13-1.64.4-.93.1-1.97.15-3.13.15h-.94l-.45-.15-.65.15-.4.15c-.56,0-1.46-.12-2.69-.35-.89-.17-1.59-.27-2.09-.3-2.59-.23-5.11-.69-7.56-1.37-2.45-.68-5.64-1.68-9.55-3.01-.99-.36-2.88-.55-5.67-.55-.37,0-.76.06-1.19.17-.43.12-.71.19-.85.22-.99.3-1.77.45-2.34.45-.83,0-1.54-.19-2.14-.57-.6-.38-.9-.97-.9-1.77ZM71.21,46.95c0-.27.07-.44.22-.52.15-.08.33-.13.55-.15.22-.02.34-.09.37-.22h.5c1.09,0,2.19.14,3.28.42,1.09.28,1.72.77,1.89,1.47.07.3.02.56-.15.8-.17.23-.4.43-.7.6-.3.17-.51.28-.65.35-.27-.83-.74-1.38-1.42-1.67-.68-.28-1.52-.47-2.51-.57-.4-.03-.73-.08-.99-.15-.27-.07-.4-.18-.4-.35ZM80.95,57.89c0-.17.09-.3.27-.4.18-.1.37-.15.57-.15.73,0,1.39,2.75,1.99,8.25.03.3.06.55.07.75.02.2.06.35.12.45.03.2.18.45.45.75.27.3.4.56.4.8,0,.2-.09.46-.27.77-.18.32-.34.47-.47.47-.76,0-1.29-.59-1.57-1.77-.28-1.18-.49-2.76-.62-4.75,0-.63-.03-1.21-.1-1.74-.03-.4-.17-.9-.4-1.49-.3-.86-.45-1.51-.45-1.94ZM84.73,40.14h.5c1.03,0,2.1-.17,3.21-.52,1.11-.35,2.44-.85,4-1.52.36-.17.9-.39,1.62-.67.71-.28,1.33-.5,1.86-.67.7-.3,1.11-.48,1.24-.55.7-.36,1.27-.62,1.72-.77.45-.15.92-.22,1.42-.22.7,0,1.12.48,1.27,1.44.15.96.22,2.06.22,3.28,0,1.33-.07,2.06-.2,2.19.03,1.79-.18,4.44-.65,7.96-.1.56-.23,1.53-.4,2.88-.2.17-.3.33-.3.5l.05.5v.25c0,.1-.1.27-.3.52s-.3.42-.3.52c.5-.03,1.16-.21,1.99-.55.17-.03.5-.12.99-.27.5-.15.96-.22,1.39-.22.76,0,1.31.3,1.64.9.33.6.5,1.31.5,2.14,0,2.02-.22,3.48-.65,4.38l-.2,2.63c-.13.13-.23.36-.3.67-.07.32-.13.73-.2,1.24-.07.51-.1.85-.1,1.02-.07,1.49-.21,2.62-.42,3.38-.22.76-.64,1.14-1.27,1.14-.4,0-.94-.57-1.64-1.71-.7-1.14-1.33-2.41-1.91-3.8-.58-1.39-.87-2.32-.87-2.78v-.1c0-.07.03-.17.1-.32.07-.15.12-.22.15-.22h.15l.25-.1c-.5-.7-.88-1.14-1.14-1.34-.1-.13-.43-.48-.99-1.04.13-.13.22-.32.25-.57.03-.25.07-.41.12-.47.05-.07.17-.1.37-.1.43,0,1.1.47,2.01,1.42.91.94,1.37,1.65,1.37,2.11v1.49c-.1,0-.23.05-.4.15-.17.1-.28.15-.35.15-.17,0-.3-.1-.4-.3v.1c0,.66.31,1.49.92,2.49.61.99,1.23,1.77,1.86,2.34,1.19-7.16,1.79-11.14,1.79-11.93,0-.2-.04-.36-.12-.5-.08-.13-.14-.27-.17-.4h-.35c-.66,0-2.5.43-5.49,1.29-3,.86-4.78,1.53-5.35,1.99-.13.1-.22.49-.27,1.17-.05.68-.11,1.09-.17,1.22h.35c.33,0,.63-.09.9-.27.26-.18.41-.29.45-.32.43-.43.84-.65,1.24-.65.27,0,.4.15.4.45,0,.33-.41.83-1.22,1.49-.81.66-1.71,1.26-2.69,1.79-.98.53-1.6.79-1.86.79-.33,0-.58-.06-.75-.17-.17-.12-.25-.37-.25-.77,0-.23.23-.5.7-.79.46-.3.85-.63,1.14-.99s.45-.88.45-1.54c0-.3-.02-.46-.07-.5-.05-.03-.16-.05-.32-.05-.37,0-.64.03-.82.1-.18.07-.34.22-.47.45l-1.39.5c-1.79.6-3.17.98-4.13,1.14-.1-.03-.2-.1-.3-.2-.1-.1-.15-.25-.15-.45,0-.23.39-.51,1.17-.84.78-.33,1.83-.75,3.16-1.24.26-.13.64-.28,1.12-.45.48-.17.97-.36,1.47-.6.5-.23.75-.4.75-.5v-4.52l-.15-.65c-.43.07-1.08.3-1.94.7-.6.27-1.1.46-1.52.6-.41.13-.85.2-1.32.2-1.13,0-1.69-.38-1.69-1.14v-.25l.3-.25c.07-.6-.08-1.54-.45-2.83-.23-.6-.38-1.16-.45-1.69,0-.07.02-.14.07-.22.05-.08.07-.17.07-.27-.13-.73-.25-1.56-.35-2.49-.1-1.06-.22-1.92-.35-2.59-.13-.66-.38-1.29-.75-1.89-.1-.23-.35-.41-.75-.55-.4-.13-.68-.24-.84-.32-.17-.08-.3-.24-.4-.47-.2-.56.18-.85,1.14-.85.46,0,.8.05,1.02.15.22.1.45.29.7.57.25.28.49.49.72.62ZM94.48,38.89l-.1.1-2.14.75c-4.67,1.26-7.01,1.99-7.01,2.19,0,.53.12,1.41.35,2.64.27.99.4,1.91.4,2.73l-.1.3v.1c2.19-1.09,3.51-1.69,3.98-1.79.7-.07,1.57-.48,2.64-1.24v-.5c0-.23-.02-.46-.05-.67-.03-.21-.05-.46-.05-.72l.5-.5c.07.07.21.11.45.12.23.02.36.11.4.27.03.1.08.33.15.7.07.37.2.55.4.55.36,0,.84-.15,1.44-.45.56-.27.99-.4,1.29-.4.53,0,.8.15.8.45,0,.37-.12.65-.35.85-.23.2-.6.4-1.09.6-.83.3-1.49.72-1.99,1.27-.5.55-.75,1.5-.75,2.86l.1.5h.1c.2,0,.5-.11.9-.32.4-.21.73-.32.99-.32,0,.2-.03.47-.1.82-.07.35-.1.64-.1.87,0,.43.41.97,1.24,1.62.83.65,1.49.97,1.99.97.27-1.19.4-1.91.4-2.14l.65-6.02c-.03-.5.03-1.16.2-1.99.03-.2.07-.43.1-.7.03-.26.05-.6.05-.99,0-1.29-.04-2.34-.12-3.13-.08-.8-.32-1.18-.72-1.14-.53.03-1.33.27-2.41.7-1.08.43-1.88.8-2.41,1.09ZM86.72,48.54c-.13,0-.22-.06-.27-.17-.05-.12-.17-.17-.37-.17,0,.63.12,1.56.37,2.78.25,1.23.59,1.84,1.02,1.84h.1c.1-.03.76-.25,1.99-.65,1.23-.4,2.04-.85,2.44-1.34,0-.6.05-1.21.15-1.84.07-.83.1-1.42.1-1.79,0-.23-.03-.35-.1-.35-.7,0-1.57.28-2.64.85-.1.03-.45.18-1.04.45-.6.27-1.18.4-1.74.4ZM93.13,54.36c0,.73.02,1.28.05,1.64l.05,1.64c.23,0,1.3-.37,3.21-1.12,1.91-.75,2.86-1.17,2.86-1.27-.17-.1-.3-.15-.4-.15-.17-.03-.41-.11-.72-.22-.32-.12-.54-.17-.67-.17-.17-.23-1.29-1.39-3.38-3.48h-.1c-.43.27-.69.66-.77,1.19-.08.53-.12,1.18-.12,1.94Z"/>
  <path class="st0" d="M134.7,37.35c0-.2.03-.37.1-.52.07-.15.18-.22.35-.22h.8c1.52,0,2.47.32,2.83.94.1.4.18,1.49.25,3.28.13,3.45.36,5.17.7,5.17.63,0,1.67-.27,3.13-.8.56-.23,1.16-.43,1.79-.6.63-.17,1.19-.25,1.69-.25.4,0,.75.06,1.07.17.31.12.47.34.47.67,0,.53-.26.89-.77,1.07-.51.18-1.37.32-2.56.42-1.69.17-3.01.46-3.95.89-.94.43-1.42,1.31-1.42,2.64,0,.96.73,1.9,2.19,2.81,1.46.91,3.48,1.98,6.07,3.21,1.33.63,2.22,1.08,2.69,1.34,2.02,1.26,3.58,2.06,4.67,2.39.3.07.83.15,1.59.25.96.07,1.73.17,2.31.3.58.13,1.07.42,1.47.85v.1c0,.33-.12.62-.37.87-.25.25-.57.37-.97.37-.56,0-1.66-.14-3.28-.42-1.62-.28-2.7-.52-3.23-.72-.33-.07-.75-.3-1.27-.7-.51-.4-.85-.66-1.02-.8-2.75-1.52-5.65-3.2-8.7-5.02-.23-.2-.6-.51-1.09-.94-.5-.43-.76-.61-.8-.55l-.1.1v1.49l.1.4-.1.35v.3c0,.17.02.32.05.45.03.13.05.27.05.4,0,.43-.03.75-.1.94v1.89c-.1.07-.15.27-.15.6,0,.2.03.37.07.5.05.13.07.27.07.4v.1l-.15,1.34v.3c0,.36.05.7.15.99h.2c.5,0,1.21-.15,2.14-.45.83-.36,1.54-.55,2.14-.55h.55c.2.03.31.09.35.17.03.08.05.21.05.37,0,.4-.39.79-1.17,1.17-.78.38-1.66.7-2.64.94-.98.25-1.57.41-1.77.47,0,.13-.08.35-.25.65v1.14c0,.93.07,2.27.2,4.03.03.4.07.91.12,1.54s.07,1.36.07,2.19c0,.36-.13.7-.4,1.02-.27.31-.56.47-.89.47-.63,0-1.44-.38-2.44-1.14-.99-.76-1.88-1.63-2.66-2.61-.78-.98-1.17-1.77-1.17-2.36,0-.3.02-.52.05-.67.03-.15.15-.22.35-.22.23,0,.47.13.72.4.25.27.54.66.87,1.19.56.83,1.09,1.48,1.57,1.96.48.48,1.05.72,1.72.72v-5.27c-.1-.23-.15-.61-.15-1.14v-1c.1-.17-.02-.25-.35-.25-.4,0-1.06.12-1.99.35-.86.27-1.57.4-2.14.4-1.43,0-2.14-.25-2.14-.75,0-.33.27-.57.82-.72.55-.15,1.38-.29,2.51-.42,1.92-.17,3.07-.45,3.43-.84.23-.3.35-1.13.35-2.49l-.1-2.09.15-.35-.15-.65v-7.21l-.1-.2c-.1.53-.27,1.03-.52,1.49-.25.46-.67,1.09-1.27,1.89-.8,1.06-1.31,1.89-1.54,2.49l-.8,1.04c-2.02,2.55-3.89,4.64-5.59,6.26-1.71,1.62-3.42,2.44-5.15,2.44-.43,0-1.03-.07-1.79-.22-.76-.15-1.34-.32-1.74-.52-.2-.27-.38-.4-.55-.4h-.1c-.07-.1-.17-.18-.32-.25-.15-.07-.29-.17-.42-.3-.13-.13-.2-.3-.2-.5,0-.17.02-.28.05-.35.03-.07.13-.1.3-.1.46,0,1.16.18,2.09.55.99.46,1.82.7,2.49.7,1.13,0,2.24-.41,3.33-1.22s2.29-1.93,3.58-3.36c.33-.6.93-1.39,1.79-2.39.76-.83,1.36-1.57,1.79-2.24.53-.73,1.23-1.86,2.09-3.38.4-.8.88-1.62,1.44-2.49.1-.2.35-.3.75-.3-.07-.07-.1-.28-.1-.65,0-.1.04-.24.12-.42.08-.18.12-.32.12-.42,0-.2-.08-.3-.25-.3-1.76.43-3.58.99-5.47,1.69-1.76.63-3.12,1.04-4.08,1.24-.3.07-.69.21-1.17.42-.48.22-1.02.32-1.62.32-.4,0-.99-.12-1.79-.37-.8-.25-1.51-.57-2.14-.97-.63-.4-.94-.83-.94-1.29,0-.13.07-.27.22-.42s.32-.22.52-.22h.1c.46.27.89.46,1.27.57.38.12.72.21,1.02.27h2.54c.73-.36,1.87-.7,3.43-.99l1.44-.35,3.18-.94c.8-.27,2.04-.61,3.73-1.04.07,0,.12-.1.17-.3s.07-.35.07-.45c0-.9-.04-2.29-.12-4.18-.08-1.89-.21-2.9-.37-3.03-.07-.03-.43-.18-1.09-.45-.66-.27-.99-.65-.99-1.14Z"/>
  <path class="st0" d="M186.12,34.17v-.4l.2-.1h.2c.3,0,.65.06,1.04.17.4.12.61.31.65.57.1.2.03.46-.22.8-.25.33-.37.58-.37.75,0,.23.2.49.6.77.4.28.87.56,1.42.85.55.28.92.49,1.12.62.1.03.35.2.75.5.4.3.7.51.9.65.03.27,1.32,1.5,3.85,3.7,2.54,2.2,4.23,3.62,5.1,4.25l1.74,1.34c.17.1,1.03.45,2.59,1.04,1.03.37,2.01.74,2.93,1.12.93.38,1.39.67,1.39.87s-.04.38-.12.55c-.08.17-.21.27-.37.3h-.5c-1.23,0-2.53-.21-3.9-.65-1.38-.43-2.63-.98-3.75-1.64-.4-.17-.8-.51-1.22-1.02-.41-.51-.75-.9-1.02-1.17-.2-.2-.54-.5-1.02-.9-.48-.4-.87-.83-1.17-1.29l-5.37-5.37c-.56-.56-1.29-1.13-2.19-1.69-.13-.1-.46-.33-.97-.7-.51-.36-.99-.8-1.42-1.29h-.25c0,.53-.38,1.23-1.14,2.09-.56.63-.88,1.06-.94,1.29-2.35,4.54-4.51,8.42-6.46,11.63-.07.1-.35.45-.85,1.04-.5.6-.75,1.08-.75,1.44,0,.13.34,1.17,1.02,3.11.68,1.94,1.04,2.91,1.07,2.91.4,0,.82-.11,1.27-.32.45-.21.9-.46,1.37-.72.7-.43,1.3-.75,1.82-.94.51-.2,1.05-.28,1.62-.25.83,0,1.24.53,1.24,1.59v.4c-.2.53-.51,1.06-.94,1.59l-.7,1.14c0,.13.1.2.3.2h.1c.2-.17.43-.37.7-.62.26-.25.45-.45.55-.62.2-.23.44-.55.72-.94.28-.4.55-.75.8-1.04s.49-.45.72-.45c.2,0,.31.03.35.1.03.07.05.22.05.45,0,.33-.1.64-.3.92-.2.28-.51.64-.94,1.07-.43.37-.75.68-.97.94-.22.27-.36.58-.42.94-.27.2-.68.65-1.24,1.34-.56.73-1.09,1.32-1.57,1.77-.48.45-.97.67-1.47.67s-.75-.25-.75-.75c0-.27.07-.58.2-.94.13-.36.35-.77.65-1.22s.48-.72.55-.82c.53-.73.94-1.39,1.22-1.99.28-.6.42-1.18.42-1.74-.3,0-1.24.41-2.81,1.22-1.58.81-2.36,1.28-2.36,1.42,0,.56.2,1.41.6,2.54.27.73.4,1.24.4,1.54,0,.36-.12.68-.37.94s-.57.4-.97.4c-.33,0-.6-.28-.8-.85s-.34-1.2-.42-1.91c-.08-.71-.14-1.13-.17-1.27-.07-.3-.23-.61-.5-.94-.27-.33-.45-.55-.55-.65v-.3c0-.46.21-.8.65-.99v-.5c0-.56-.1-1.18-.3-1.84-.03-.17-.09-.47-.17-.92-.08-.45-.09-.87-.02-1.27l-.15-.15-.1-.75h-.1c-.13,0-.33.17-.6.5-.27.33-.43.55-.5.65-1.29,1.53-2.55,2.78-3.78,3.78-1.23.99-2.6,1.49-4.13,1.49-.53,0-1.01-.21-1.44-.65-.43-.43-.65-.93-.65-1.49,0-.03-.02-.12-.05-.27-.03-.15.05-.22.25-.22s.49.22.87.67c.38.45.72.67,1.02.67,1.16,0,2.16-.28,3.01-.84.85-.56,1.78-1.39,2.81-2.49.07-.36.27-.69.62-.97.35-.28.6-.52.77-.72,2.05-2.88,4.64-7.11,7.76-12.68l.7-1.39c.66-1.26,1.16-2.12,1.49-2.59.13-.23.27-.46.42-.7.15-.23.29-.46.42-.7.1-.17.36-.57.8-1.22.43-.65.66-1.13.7-1.47,0-.13-.03-.3-.1-.5-.07-.2-.1-.36-.1-.5ZM180.2,50.13c.17.03.41.05.75.05.99,0,2.1-.23,3.33-.7,1.23-.46,2.68-1.13,4.38-1.99l1.64-.75c.27-.1.69-.33,1.27-.7.58-.36,1.13-.55,1.67-.55.17,0,.31.07.45.22.13.15.2.32.2.52,0,.76-3.12,2.25-9.35,4.48-.56.23-.98.39-1.24.47-.27.08-.45.14-.55.17h-2.39c-.07,0-.13-.11-.2-.32-.07-.21-.1-.39-.1-.52,0-.2.05-.33.15-.4ZM191.39,55.05c2.12-.1,3.96-.45,5.52-1.04.3-.1.56-.2.8-.3.23-.1.45-.18.65-.25.8-.33,1.47-.59,2.04-.77.56-.18,1.18-.27,1.84-.27.73,0,1.09.5,1.09,1.49,0,.46-.5,1.58-1.49,3.36-.99,1.77-2.06,3.42-3.18,4.95-1.13,1.52-1.92,2.29-2.39,2.29h-.1l-.75-.15h-.1c-.07,0-.15.04-.25.12-.1.08-.15.16-.15.22v5.97l.1.65c0,.53-.03,1.14-.1,1.84-.07.7-.13,1.23-.2,1.59-.23,1.52-.35,2.68-.35,3.48l.15.6v.25c0,.76-.43,1.14-1.29,1.14-.4,0-.7-.41-.92-1.22-.22-.81-.32-1.53-.32-2.16,0-.2.18-.5.55-.9l.1-1.44c.03-.43.12-1.77.27-4.03.15-2.25.19-4.46.12-6.61l.1-.5c.13-.93.2-1.89.2-2.88l-.1-3.28c0-.1.04-.21.12-.32.08-.12.14-.22.17-.32h-2.39c-.17,0-.25-.25-.25-.75,0-.2.03-.34.1-.42.07-.08.2-.19.4-.32ZM194.17,56.44c.2.27.32.7.37,1.29.05.6.09,1.23.12,1.89.03,1.03.11,1.81.22,2.36.12.55.32.82.62.82.33,0,.64-.16.92-.47.28-.31.54-.5.77-.57.3-.63.84-1.49,1.64-2.59.83-1.26,1.45-2.25,1.86-2.98.41-.73.62-1.39.62-1.99-.63,0-1.89.38-3.78,1.14-1.72.6-2.85.96-3.38,1.09ZM200.44,49.78s-.02.05-.05.05-.05-.02-.05-.05c0-.07.02-.1.05-.1s.05.03.05.1Z"/>
  <path class="st0" d="M219.13,65.87c.46-.48,1.06-.72,1.79-.72.86,0,1.29.65,1.29,1.94v.9c-.6,1.59-1.28,2.88-2.04,3.88-.76,1-1.79,1.49-3.08,1.49-.17,0-.25-.05-.25-.15v-.1c.2-.5.8-1.13,1.79-1.89.43-.3.73-.56.9-.8.03-.1.12-.26.27-.47.15-.21.22-.42.22-.62-.17,0-.38-.09-.65-.27-.27-.18-.5-.26-.7-.22-.03-.17-.08-.35-.15-.55-.07-.2-.1-.41-.1-.65,0-.7.23-1.28.7-1.77Z"/>
  <path class="st0" d="M286.85,46.65v1.59c0,3.98-.2,7.55-.6,10.72-.4,3.17-1.08,5.97-2.04,8.43-.2.53-.58,1.38-1.14,2.54l-.99,1.99-.1.25c-.23.23-.56.46-.97.7-.41.23-.69.38-.82.45-1.13.83-2.14,1.24-3.03,1.24-.83,0-1.24-.18-1.24-.55v-.1l.1-.35c3.78-.1,6.27-2.77,7.46-8.01,1.19-5.17,1.79-10.46,1.79-15.86v-.35c0-.23-.05-.38-.15-.45-.23.2-.51.61-.85,1.24-.33.63-.56,1.04-.7,1.24-1.26,2.42-3.18,5.97-5.77,10.64-2.25,4.01-3.65,6.02-4.18,6.02-.46,0-.75-.13-.85-.4v-.75c0-.86.12-1.71.37-2.54s.65-1.91,1.22-3.23c.6-1.52,1-2.67,1.22-3.43.22-.76.32-1.56.32-2.39,0-.4-.28-.6-.85-.6s-1.09.12-1.57.37c-.48.25-1.27.75-2.36,1.52-.89.66-1.63,1.14-2.21,1.44-.58.3-1.15.45-1.72.45-.76,0-1.14-.27-1.14-.8,0-.23.31-.71.94-1.44.53-.73.91-1.09,1.14-1.09.2,0,.35.13.45.4-.07.07-.1.15-.1.25l-.15.15v.35c.6,0,1.56-.46,2.88-1.39.93-.63,1.73-1.1,2.41-1.42.68-.31,1.3-.47,1.86-.47s1.02.23,1.37.7c.35.46.52,1.04.52,1.74,0,.53-.1,1.09-.3,1.69-.2.6-.58,1.54-1.14,2.83-.8,1.72-1.19,2.9-1.19,3.53.33,0,.97-.77,1.91-2.31s2.38-4.05,4.3-7.53c1.62-2.95,2.84-5.09,3.65-6.41.81-1.33,1.33-1.99,1.57-1.99.13,0,.35.46.65,1.39ZM269.65,45.7l-.55-.2c0-.3.11-.49.32-.57.21-.08.32-.14.32-.17l1.69-.25c1.33-.2,2.15-.3,2.49-.3,1.33,0,2.2.5,2.64,1.49v.8c0,.73-.35,1.53-1.04,2.39-.73.83-1.48,1.24-2.24,1.24,0-.23.05-.45.15-.65.1-.2.36-.51.8-.94.43-.53.65-.99.65-1.39,0-.43-.21-.78-.62-1.04-.41-.27-.9-.4-1.47-.4h-3.13ZM295.75,57.59c.46-.17.73-.25.8-.25.93-.36,1.67-.55,2.24-.55.93,0,1.62.2,2.06.6.45.4.65,1.01.62,1.84.13.17.31.29.52.37.22.08.39.16.52.22.13.07.2.18.2.35,0,.23-.91,1.06-2.73,2.49-1.86,1.46-2.88,2.19-3.08,2.19-.1,0-.35-.2-.75-.6.17-.46.73-1.18,1.69-2.14.73-.73,1.24-1.32,1.54-1.76.3-.45.45-.92.45-1.42,0-.17-.22-.25-.65-.25-3.51,0-5.27,1.13-5.27,3.38,0,.07,0,.41-.02,1.02-.02.61.11,1.07.37,1.37.26.3.7.61,1.29.94.66.36,2.39,1.61,5.17,3.73.53.33,1.39.93,2.59,1.79,1.13.83,1.72,1.24,1.79,1.24l.15-1.59c.23-1.66.35-3.02.35-4.08-.07-1.56-.2-3.2-.4-4.92l-.35-3.08c-.03-.27-.05-.86-.05-1.79,0-1.59-.12-2.95-.35-4.08v-5.77c-.03-.23-.08-.99-.15-2.29-.17-1.23-.33-1.97-.5-2.24-.2-.3-.4-.52-.6-.67-.2-.15-.42-.27-.67-.37-.25-.1-.46-.2-.62-.3h-.75c-1.09,0-2.18.12-3.26.37-1.08.25-2.54.69-4.4,1.32l-4.28,1.29c-1.13.27-2.2.4-3.23.4h-.65s-.11-.03-.22-.1c-.12-.07-.17-.15-.17-.25,0-.2.8-.55,2.39-1.07,1.59-.51,4.28-1.27,8.05-2.26,1.69-.43,3.2-.85,4.53-1.24h3.53c.96,0,1.69.71,2.19,2.14.46,1.56.7,2.9.7,4.03v.3l-.1.2.1.55c-.07,3.55.17,7.89.7,13.03l.25,2.98c.17,1.89.27,3.43.3,4.62l.2.35c-.03.2-.2.73-.5,1.59-.03.13-.08.33-.15.6-.07.27-.12.5-.15.7,0,.07.05.18.15.35v3.68c0,.2-.15.4-.45.6-.3.2-.53.3-.7.3-.23,0-1.47-1.13-3.73-3.38l-1.39-1.39c-2.62-2.39-4.89-4.08-6.81-5.07h-.15c-.66.17-1.08.25-1.24.25h-.15c-.43,0-.65-.63-.65-1.89,0-1.59.08-2.8.25-3.63.17-.83.41-1.41.75-1.74s.8-.58,1.39-.75c.53,0,1.03-.08,1.49-.25ZM292.2,54.85c-.38.2-.89.51-1.52.94-.83.53-1.47.9-1.94,1.12-.46.22-.9.31-1.29.27-.1,0-.17-.07-.22-.2-.05-.13-.07-.26-.07-.4,0-.43.6-.96,1.79-1.59,1.42-.83,2.46-1.58,3.11-2.26.65-.68.97-1.55.97-2.61v-.84l-.1-.15c-.4,0-1.03.23-1.89.7-.93.46-1.61.7-2.04.7-.17,0-.34-.02-.52-.07-.18-.05-.31-.11-.37-.17v-.6c.13,0,.23-.06.3-.17.07-.12.1-.19.1-.22.17-.07.72-.27,1.67-.6.94-.33,1.78-.7,2.51-1.09l.3-.15v-.55c0-.8.04-1.38.12-1.76.08-.38.29-.57.62-.57.23,0,.39.08.47.25.08.17.19.56.32,1.19l.89-.25c.7-.1,1.19-.15,1.49-.15.2,0,.38.07.55.22.17.15.25.32.25.52.03.23-.06.43-.27.6-.22.17-.57.33-1.07.5-.53.17-.89.31-1.09.42-.2.12-.32.29-.35.52-.03.17-.05.53-.05,1.09s-.02.94-.05,1.14c-.03.13-.13.32-.3.57-.17.25-.25.47-.25.67.56,0,1.37-.22,2.44-.65.96-.46,1.79-.7,2.49-.7.76,0,1.14.28,1.14.84,0,.4-.21.7-.62.9-.41.2-1.09.37-2.01.5-.86.1-1.54.3-2.04.6l-2.09.94c-.53.17-.99.35-1.37.55Z"/>
  <path class="st0" d="M318.83,53.56c1.03,0,2.55-.6,4.57-1.79,2.02-1.19,3.94-2.45,5.77-3.78.17-.1.39-.27.67-.5.28-.23.59-.43.92-.6.33-.17.73-.25,1.19-.25.4,0,.6.07.6.2,0,.7-.36,1.87-1.07,3.53-.71,1.66-1.51,3.27-2.39,4.82-.88,1.56-1.48,2.44-1.81,2.64.23.1.35.35.35.75l-.1.4c0,1.19.13,2.19.4,2.98l.25-.15.75.15h.25c.1-.1.44-.39,1.02-.87.58-.48.87-.82.87-1.02l2.24-2.24c.13-.1.34-.25.62-.45.28-.2.5-.3.67-.3.1,0,.26.12.5.35v.1c0,.56-.8,1.43-2.39,2.59-1.36,1.03-2.04,1.74-2.04,2.14.5,0,1.5.19,3.01.57,1.51.38,2.26.67,2.26.87,0,.33-.09.61-.27.82-.18.22-.41.32-.67.32-.93,0-2.07-.32-3.43-.94-.76-.3-1.38-.53-1.84-.7-.46-.17-.94-.25-1.44-.25,0,1.72-.1,3.63-.3,5.72-.03.46-.08,1.4-.15,2.81-.07,1.41-.08,2.73-.05,3.95-.13.3-.23.51-.3.65-.07.13-.22.2-.45.2-.63,0-1.05-.41-1.27-1.24-.22-.83-.32-1.66-.32-2.49,0-.36.07-.61.22-.75.15-.13.35-.26.6-.37s.39-.21.42-.27c.3-1.19.45-3.16.45-5.92v-1.24l-.1-.3c-.17-1.19-.25-2.02-.25-2.49v-.35c0-.23.04-.52.12-.87.08-.35.12-.6.12-.77,0-.36-.08-.55-.25-.55h-.1c-.27.27-.92,1.09-1.96,2.49-1.04,1.39-1.62,2.17-1.72,2.34-1.49,1.62-3.05,3.05-4.67,4.28-.17.07-.45.25-.85.55s-.83.45-1.29.45c-.5,0-.75-.21-.75-.65,0-.23.14-.42.42-.57.28-.15.66-.33,1.14-.55.48-.21.8-.37.97-.47,1.06-.76,2.59-2.39,4.6-4.87,2.01-2.49,3.79-4.97,5.34-7.46,1.56-2.49,2.34-4.24,2.34-5.27v-.2c-.66.7-1.74,1.57-3.23,2.64-1.49,1.06-3,1.98-4.53,2.76-1.53.78-2.75,1.17-3.68,1.17-.73,0-1.31-.27-1.74-.82-.43-.55-.65-1.2-.65-1.96v-.45l.3-.3h.1c.17,0,.35.2.55.6.2.4.41.7.62.89.22.2.49.3.82.3ZM324.49,35.71c0-.1.02-.19.05-.27.03-.08.12-.12.25-.12h.1c1.92.53,3.58,1.09,4.97,1.67,1.39.58,2.09,1.2,2.09,1.86,0,.5-.22,1.03-.67,1.59-.45.56-.99,1.02-1.62,1.37-.63.35-1.18.52-1.64.52,0-.53.35-1.09,1.04-1.69.33-.3.58-.56.75-.77s.25-.47.25-.77c0-.2-.25-.42-.75-.67s-1.06-.49-1.69-.72c-1.03-.46-1.81-.84-2.34-1.12-.53-.28-.8-.57-.8-.87ZM340.85,37.95l.1-.1h1.29c1.06,0,1.84.1,2.34.3s.82.58.97,1.14c.15.56.22,1.41.22,2.54l-.1.4v.25l.1,1.39v7.56c.07.1.1.22.1.35,0,.2-.02.39-.05.57-.03.18-.05.37-.05.57,0,.43.03,1.09.1,1.99.1.99.15,1.76.15,2.29l-.15,1.29v.1c0,.17.05.3.15.4v3.28l.15.2c0,.17-.08.46-.25.89-.17.43-.25.76-.25,1,0,.2.03.52.1.97.07.45.1.79.1,1.02,0,.27-.06.65-.17,1.17-.12.51-.17.89-.17,1.12,0,.43.07.88.2,1.34.03.13.07.33.1.6.03.27.05.6.05.99,0,1.29-.12,2.7-.37,4.23-.25,1.52-.7,2.29-1.37,2.29-.33,0-.5-.35-.5-1.04,0-.17.04-.46.12-.89.08-.43.12-.76.12-1v-10.69c.17-1.29.25-2.45.25-3.48,0-.83-.05-2.12-.15-3.88-.07-1.76-.1-3.07-.1-3.93,0-.17.02-.37.05-.62.03-.25.05-.5.05-.77,0-.33-.03-.58-.1-.75v-2.09l.1-1.04c0-.9-.03-2.25-.1-4.08-.07-1.76-.1-3.08-.1-3.98-.13-.26-.32-.45-.55-.55-.23-.1-.55-.17-.94-.2-.5-.03-.86-.12-1.09-.25-.23-.13-.35-.43-.35-.9ZM348.16,55.2s-.05-.02-.05-.07.02-.07.05-.07c.1,0,.15.02.15.07s-.05.07-.15.07ZM348.41,55.65v-.35c.07-.07.2-.1.4-.1h.1l3.68.75c.1.03,1,.37,2.71,1.02,1.71.65,2.56,1.27,2.56,1.86,0,.17-.12.4-.37.7s-.46.45-.62.45c-.8-.13-1.81-.61-3.03-1.44-.53-.4-.94-.66-1.24-.8-.46-.26-1.03-.46-1.69-.6-.1-.03-.39-.12-.87-.25-.48-.13-.89-.33-1.22-.6-.2-.1-.32-.19-.35-.27-.03-.08-.05-.21-.05-.37Z"/>
  <path class="st0" d="M380.13,45.46c1.03,0,2.02-.14,2.98-.42.96-.28,2.07-.67,3.33-1.17,1.33-.46,2.44-.82,3.36-1.07s1.85-.37,2.81-.37h.5c.07.1.16.27.27.52s.21.46.27.62c0,1.06-.45,2.62-1.34,4.67-.07.23-.19.57-.37,1.02-.18.45-.37.99-.55,1.64-.18.65-.27,1.2-.27,1.67.36,0,.9-.07,1.59-.2.2-.03.42-.07.67-.12s.54-.07.87-.07c.66,0,1.57.09,2.71.27,1.14.18,1.72.44,1.72.77,0,1.13-.61,2.52-1.82,4.18-1.21,1.66-2.46,3.17-3.75,4.52-.03.27-.43.66-1.19,1.19-.79.56-1.19.99-1.19,1.29v.15h.5c1.39,0,2.87-.16,4.42-.47,1.56-.31,2.49-.49,2.78-.52,1.56-.33,2.89-.59,4-.77,1.11-.18,2.2-.27,3.26-.27.43,0,.85.07,1.27.2.42.13.62.36.62.7,0,.4-.12.77-.35,1.12-.23.35-.53.52-.9.52-.07,0-.13-.02-.2-.05-.07-.03-.13-.05-.2-.05-.17,0-.25.03-.25.1l-.1-.3h-.5c-.86,0-1.54.07-2.04.2l-.4-.3h-.5c-.83,0-1.73.08-2.71.25-.98.17-1.95.35-2.91.55-1.52.3-2.73.51-3.6.62-.88.12-1.78.16-2.71.12-.2.17-.68.32-1.44.45-.63.17-1.08.3-1.34.4-1.82,1.03-3.41,1.82-4.75,2.39-1.34.56-2.86.99-4.55,1.29h-1.39c-.83,0-1.64-.07-2.44-.2-1.06-.07-1.84-.1-2.34-.1-.36,0-.84.08-1.44.25-.5.17-.98.25-1.44.25-.76,0-1.42-.07-1.96-.22-.55-.15-.82-.49-.82-1.02,0-.36.36-.68,1.09-.94.73-.26,1.34-.4,1.84-.4.1.03.26.09.5.17.23.08.45.16.65.22h.1c.13,0,.34-.04.62-.12.28-.08.49-.14.62-.17.3-.17.68-.28,1.14-.35l10.29-2.29v-.1c0-.26-.02-.49-.05-.67-.03-.18-.07-.34-.1-.47-.17-.53-.25-.91-.25-1.14,0-.07,0-.23-.02-.5-.02-.26.06-.4.22-.4.3,0,.5.11.62.32.12.22.21.49.27.82.07.33.21.5.45.5.13,0,.2-.04.2-.12s.02-.16.05-.22c.1-.36.28-.8.55-1.32.27-.51.5-.92.7-1.22,0-.3.06-.62.17-.97.12-.35.29-.71.52-1.09.23-.38.36-.62.4-.72.8-1.23,1.19-2.29,1.19-3.18-.33,0-.78.15-1.34.45-.56.3-.96.5-1.19.6l-1.14.55c-1.19.56-2.25.99-3.18,1.29-.93.3-1.79.45-2.59.45-1.16,0-1.74-.3-1.74-.9,0-.3.09-.59.27-.87.18-.28.42-.42.72-.42h.25c0,.13.08.28.25.45h.8c.63,0,2.29-.5,4.97-1.49,2.68-.99,4.28-1.69,4.77-2.09.37-.27.75-1.03,1.15-2.29.4-1.26.74-2.59,1.04-4,.3-1.41.45-2.31.45-2.71-.73,0-1.44.11-2.14.32-.7.22-1.56.56-2.59,1.02-1.03.46-1.9.81-2.61,1.04-.71.23-1.45.35-2.21.35h-.2l-.45-.15c-.13,0-.28.04-.45.12-.17.08-.33.12-.5.12-.23,0-.72-.14-1.47-.42-.75-.28-1.43-.61-2.04-.99-.61-.38-.92-.75-.92-1.12.66,0,1.36.13,2.09.4.13.07.41.16.85.27.43.12.83.17,1.19.17ZM376.16,69.57l.2.2h.15l.25-.1c2.05,0,4.41-.6,7.06-1.79.3-.13.56-.27.8-.42.23-.15.46-.29.7-.42l-.35-.1c-.96.27-2.67.76-5.12,1.49-2.45.73-3.68,1.11-3.68,1.14ZM394.7,53.96h-1.89c-.26.2-.71.33-1.34.4-.63.07-1.04.18-1.24.35-.47.83-1.32,2.65-2.56,5.47-1.24,2.82-1.86,4.47-1.86,4.97,1.19,0,1.99-.13,2.39-.4.53-.26,1.48-1.13,2.86-2.59,1.37-1.46,2.63-2.93,3.75-4.43,1.12-1.49,1.69-2.5,1.69-3.03v-.65c-.5-.13-.83-.2-.99-.2h-.15c-.23,0-.45.03-.65.1Z"/>
  <path class="st0" d="M426.77,38.25c0-.13.04-.29.12-.47.08-.18.21-.27.37-.27.63,0,1.09.22,1.37.65.28.43.42.94.42,1.54,0,.93-.13,1.46-.4,1.59-.13.36-.34.84-.62,1.42-.28.58-.49.95-.62,1.12-.43.63-1.79,2.15-4.08,4.55-2.29,2.4-3.53,3.6-3.73,3.6-.33,0-.5-.07-.5-.2,0-.23.41-.82,1.24-1.76s1.43-1.58,1.79-1.91l1.24-1.24c.76-.86,1.82-2.27,3.18-4.23l1.09-1.54c0-.23.04-.48.12-.75.08-.27.12-.48.12-.65v-.15c0-.23-.19-.46-.57-.67-.38-.21-.57-.42-.57-.62ZM419.86,61.71c0-.46.51-1.18,1.54-2.14.46-.46.75-.76.85-.89.73-.99,1.57-2.32,2.54-3.98.76-1.19,1.59-2.49,2.49-3.88.3-.3.48-.5.55-.6.13-.43.2-1.11.2-2.04.3,0,.53.11.7.32.17.22.25.46.25.72,0,.9-.42,2.03-1.27,3.41-.85,1.38-1.93,3.01-3.26,4.9l-.94,1.24c-.1.17-.37.48-.82.94-.45.46-.72.86-.82,1.19-.1.13-.3.32-.6.57-.3.25-.51.39-.65.42l-.25.15c-.23,0-.37-.02-.42-.07-.05-.05-.07-.14-.07-.27ZM425.53,56.79c0-.17,0-.29.02-.37.02-.08.09-.12.22-.12,1.09,0,1.64,1.38,1.64,4.13,0,1.19-.11,3.45-.32,6.76-.22,3.31-.7,5.17-1.47,5.57-.56,0-.84-.46-.84-1.39,0-.13.07-.41.2-.82s.2-.69.2-.82c.07-.73.21-1.82.45-3.28.03-.26.15-1.07.35-2.41.2-1.34.3-2.63.3-3.85,0-.4-.13-1.03-.4-1.89-.23-.7-.35-1.19-.35-1.49ZM442.98,51.12c.6-.46,2.35-1.29,5.27-2.49,2.92-1.19,4.66-1.79,5.22-1.79h.45c.26.1.4.38.4.85v.15l-1.04.99c-.3-.03-.46-.02-.5.02s-.1.07-.2.07-.18-.03-.25-.1c-.07-.07-.17-.1-.3-.1-.63,0-1.56.33-2.78.99-.76.4-1.29.65-1.59.75v.55c0,.53.12,1.33.35,2.39.03.23.08.61.15,1.12.07.51.1.95.1,1.32l.15,2.83c.03,1.03.08,2.8.15,5.32s.1,4.76.1,6.71c0,.3-.02.54-.05.72-.03.18-.05.37-.05.57,0,.5.02.88.05,1.14l.05,1.34v1.14c0,.33-.16.63-.47.89s-.6.4-.87.4h-.15c-.1,0-.19-.02-.27-.07-.08-.05-.16-.07-.22-.07-.43-.63-.73-1.01-.9-1.14-.36-.43-2.16-1.99-5.37-4.67l-1.79-1.49.25-.2c.6,0,1.36.22,2.29.67s1.85,1.02,2.76,1.72c.91.7,1.45,1.09,1.62,1.19.07.07.18.19.35.37.17.18.3.27.4.27.33,0,.5-.73.5-2.19,0-.96-.02-1.69-.05-2.19l-.05-2.14v-1.39c.07-.07.1-.28.1-.65,0-.76-.02-1.33-.05-1.69l-.05-1.74.05-2.83c.03-.63.05-1.57.05-2.83,0-3.08-.2-4.62-.6-4.62-.46,0-1.09.22-1.89.65-.8.43-1.29.68-1.49.75-3.81,1.59-6.5,2.32-8.05,2.19l-.4.1c-.3,0-.64-.11-1.02-.32-.38-.21-.57-.46-.57-.72s.45-.9,1.37-1.89,1.53-1.49,1.86-1.49c.07,0,.1.12.1.35,0,.3-.26.7-.77,1.19-.51.5-.8.8-.87.9v.1c0,.17.26.2.8.1.8,0,1.55-.09,2.26-.27.71-.18,1.63-.47,2.76-.87.93-.33,1.84-.61,2.73-.85ZM435.97,38.64c0-.66.25-.99.75-.99s1.17.12,2.01.37,1.67.51,2.46.77l1.79.6c.7.17,1.66.32,2.88.45.2.07.59.12,1.17.17.58.05,1.12.16,1.62.32.36.1.55.38.55.84,0,.33-.48.86-1.44,1.59-.96.73-2.01,1.4-3.13,2.01-1.13.61-1.84.92-2.14.92h-.1l-.1-.15.1-.5,1.04-.94c.17,0,.66-.31,1.49-.92.83-.61,1.24-1.04,1.24-1.27,0-.2-1.38-.65-4.13-1.34l-1.14-.25-1.59-.65c-1.46-.7-2.57-1.04-3.33-1.04Z"/>
</svg>